%TF.GenerationSoftware,KiCad,Pcbnew,9.0.6*%
%TF.CreationDate,2025-12-08T21:16:02+04:00*%
%TF.ProjectId,L3MON hackpad,4c334d4f-4e20-4686-9163-6b7061642e6b,rev?*%
%TF.SameCoordinates,Original*%
%TF.FileFunction,Drillmap*%
%TF.FilePolarity,Positive*%
%FSLAX45Y45*%
G04 Gerber Fmt 4.5, Leading zero omitted, Abs format (unit mm)*
G04 Created by KiCad (PCBNEW 9.0.6) date 2025-12-08 21:16:02*
%MOMM*%
%LPD*%
G01*
G04 APERTURE LIST*
%ADD10C,0.050000*%
%ADD11C,0.200000*%
%ADD12C,0.100000*%
%ADD13C,0.150000*%
G04 APERTURE END LIST*
D10*
X9688375Y-3228000D02*
X17737625Y-3228000D01*
X17737625Y-8639875D01*
X9688375Y-8639875D01*
X9688375Y-3228000D01*
D11*
D12*
X13124301Y-3752573D02*
X13154301Y-3782573D01*
X13154301Y-3752573D02*
X13124301Y-3782573D01*
X13566511Y-5634489D02*
X13596511Y-5664489D01*
X13596511Y-5634489D02*
X13566511Y-5664489D01*
X14266801Y-5631801D02*
X14296801Y-5661801D01*
X14296801Y-5631801D02*
X14266801Y-5661801D01*
X14748750Y-4033125D02*
X14778750Y-4063125D01*
X14778750Y-4033125D02*
X14748750Y-4063125D01*
X12855575Y-3524250D02*
G75*
G02*
X12766675Y-3524250I-44450J0D01*
G01*
X12766675Y-3524250D02*
G75*
G02*
X12855575Y-3524250I44450J0D01*
G01*
X12855575Y-3778250D02*
G75*
G02*
X12766675Y-3778250I-44450J0D01*
G01*
X12766675Y-3778250D02*
G75*
G02*
X12855575Y-3778250I44450J0D01*
G01*
X12855575Y-4032250D02*
G75*
G02*
X12766675Y-4032250I-44450J0D01*
G01*
X12766675Y-4032250D02*
G75*
G02*
X12855575Y-4032250I44450J0D01*
G01*
X12855575Y-4286250D02*
G75*
G02*
X12766675Y-4286250I-44450J0D01*
G01*
X12766675Y-4286250D02*
G75*
G02*
X12855575Y-4286250I44450J0D01*
G01*
X12855575Y-4540250D02*
G75*
G02*
X12766675Y-4540250I-44450J0D01*
G01*
X12766675Y-4540250D02*
G75*
G02*
X12855575Y-4540250I44450J0D01*
G01*
X12855575Y-4794250D02*
G75*
G02*
X12766675Y-4794250I-44450J0D01*
G01*
X12766675Y-4794250D02*
G75*
G02*
X12855575Y-4794250I44450J0D01*
G01*
X12855575Y-5048250D02*
G75*
G02*
X12766675Y-5048250I-44450J0D01*
G01*
X12766675Y-5048250D02*
G75*
G02*
X12855575Y-5048250I44450J0D01*
G01*
X14379575Y-3524250D02*
G75*
G02*
X14290675Y-3524250I-44450J0D01*
G01*
X14290675Y-3524250D02*
G75*
G02*
X14379575Y-3524250I44450J0D01*
G01*
X14379575Y-3778250D02*
G75*
G02*
X14290675Y-3778250I-44450J0D01*
G01*
X14290675Y-3778250D02*
G75*
G02*
X14379575Y-3778250I44450J0D01*
G01*
X14379575Y-4032250D02*
G75*
G02*
X14290675Y-4032250I-44450J0D01*
G01*
X14290675Y-4032250D02*
G75*
G02*
X14379575Y-4032250I44450J0D01*
G01*
X14379575Y-4286250D02*
G75*
G02*
X14290675Y-4286250I-44450J0D01*
G01*
X14290675Y-4286250D02*
G75*
G02*
X14379575Y-4286250I44450J0D01*
G01*
X14379575Y-4540250D02*
G75*
G02*
X14290675Y-4540250I-44450J0D01*
G01*
X14290675Y-4540250D02*
G75*
G02*
X14379575Y-4540250I44450J0D01*
G01*
X14379575Y-4794250D02*
G75*
G02*
X14290675Y-4794250I-44450J0D01*
G01*
X14290675Y-4794250D02*
G75*
G02*
X14379575Y-4794250I44450J0D01*
G01*
X14379575Y-5048250D02*
G75*
G02*
X14290675Y-5048250I-44450J0D01*
G01*
X14290675Y-5048250D02*
G75*
G02*
X14379575Y-5048250I44450J0D01*
G01*
X15334625Y-5533625D02*
X15334625Y-5633625D01*
X15284625Y-5583625D02*
X15384625Y-5583625D01*
X15334625Y-5787625D02*
X15334625Y-5887625D01*
X15284625Y-5837625D02*
X15384625Y-5837625D01*
X15334625Y-6041625D02*
X15334625Y-6141625D01*
X15284625Y-6091625D02*
X15384625Y-6091625D01*
X15334625Y-6295625D02*
X15334625Y-6395625D01*
X15284625Y-6345625D02*
X15384625Y-6345625D01*
X15933125Y-3748125D02*
X15933125Y-3848125D01*
X15883125Y-3798125D02*
X15983125Y-3798125D01*
X15933125Y-3998125D02*
X15933125Y-4098125D01*
X15883125Y-4048125D02*
X15983125Y-4048125D01*
X15933125Y-4248125D02*
X15933125Y-4348125D01*
X15883125Y-4298125D02*
X15983125Y-4298125D01*
X17383125Y-3748125D02*
X17383125Y-3848125D01*
X17333125Y-3798125D02*
X17433125Y-3798125D01*
X17383125Y-4248125D02*
X17383125Y-4348125D01*
X17333125Y-4298125D02*
X17433125Y-4298125D01*
D13*
X10387659Y-5514034D02*
X10387659Y-5407967D01*
X10281592Y-5407967D01*
X10281592Y-5514034D01*
X10387659Y-5514034D01*
X10625784Y-7419033D02*
X10625784Y-7312966D01*
X10519717Y-7312966D01*
X10519717Y-7419033D01*
X10625784Y-7419033D01*
X11022659Y-5260034D02*
X11022659Y-5153967D01*
X10916592Y-5153967D01*
X10916592Y-5260034D01*
X11022659Y-5260034D01*
X11260783Y-7165033D02*
X11260783Y-7058966D01*
X11154717Y-7058966D01*
X11154717Y-7165033D01*
X11260783Y-7165033D01*
X12530783Y-7419033D02*
X12530783Y-7312966D01*
X12424716Y-7312966D01*
X12424716Y-7419033D01*
X12530783Y-7419033D01*
X13165783Y-7165033D02*
X13165783Y-7058966D01*
X13059716Y-7058966D01*
X13059716Y-7165033D01*
X13165783Y-7165033D01*
X14435783Y-7419033D02*
X14435783Y-7312966D01*
X14329716Y-7312966D01*
X14329716Y-7419033D01*
X14435783Y-7419033D01*
X15070783Y-7165033D02*
X15070783Y-7058966D01*
X14964716Y-7058966D01*
X14964716Y-7165033D01*
X15070783Y-7165033D01*
X16340783Y-5514034D02*
X16340783Y-5407967D01*
X16234716Y-5407967D01*
X16234716Y-5514034D01*
X16340783Y-5514034D01*
X16340783Y-7419033D02*
X16340783Y-7312966D01*
X16234716Y-7312966D01*
X16234716Y-7419033D01*
X16340783Y-7419033D01*
X16736158Y-3541158D02*
X16736158Y-3435091D01*
X16630091Y-3435091D01*
X16630091Y-3541158D01*
X16736158Y-3541158D01*
D12*
X16618125Y-3563125D02*
X16748125Y-3563125D01*
X16748125Y-3413125D02*
G75*
G02*
X16748125Y-3563125I0J-75000D01*
G01*
X16748125Y-3413125D02*
X16618125Y-3413125D01*
X16618125Y-3413125D02*
G75*
G03*
X16618125Y-3563125I0J-75000D01*
G01*
D13*
X16736158Y-4661159D02*
X16736158Y-4555092D01*
X16630091Y-4555092D01*
X16630091Y-4661159D01*
X16736158Y-4661159D01*
D12*
X16618125Y-4683125D02*
X16748125Y-4683125D01*
X16748125Y-4533125D02*
G75*
G02*
X16748125Y-4683125I0J-75000D01*
G01*
X16748125Y-4533125D02*
X16618125Y-4533125D01*
X16618125Y-4533125D02*
G75*
G03*
X16618125Y-4683125I0J-75000D01*
G01*
D13*
X16975784Y-5260034D02*
X16975784Y-5153967D01*
X16869717Y-5153967D01*
X16869717Y-5260034D01*
X16975784Y-5260034D01*
X16975784Y-7165033D02*
X16975784Y-7058966D01*
X16869717Y-7058966D01*
X16869717Y-7165033D01*
X16975784Y-7165033D01*
D11*
X9946652Y-8953859D02*
X9946652Y-8753859D01*
X9946652Y-8753859D02*
X9994271Y-8753859D01*
X9994271Y-8753859D02*
X10022842Y-8763383D01*
X10022842Y-8763383D02*
X10041890Y-8782430D01*
X10041890Y-8782430D02*
X10051414Y-8801478D01*
X10051414Y-8801478D02*
X10060938Y-8839573D01*
X10060938Y-8839573D02*
X10060938Y-8868145D01*
X10060938Y-8868145D02*
X10051414Y-8906240D01*
X10051414Y-8906240D02*
X10041890Y-8925287D01*
X10041890Y-8925287D02*
X10022842Y-8944335D01*
X10022842Y-8944335D02*
X9994271Y-8953859D01*
X9994271Y-8953859D02*
X9946652Y-8953859D01*
X10146652Y-8953859D02*
X10146652Y-8820525D01*
X10146652Y-8858621D02*
X10156176Y-8839573D01*
X10156176Y-8839573D02*
X10165699Y-8830049D01*
X10165699Y-8830049D02*
X10184747Y-8820525D01*
X10184747Y-8820525D02*
X10203795Y-8820525D01*
X10270461Y-8953859D02*
X10270461Y-8820525D01*
X10270461Y-8753859D02*
X10260938Y-8763383D01*
X10260938Y-8763383D02*
X10270461Y-8772906D01*
X10270461Y-8772906D02*
X10279985Y-8763383D01*
X10279985Y-8763383D02*
X10270461Y-8753859D01*
X10270461Y-8753859D02*
X10270461Y-8772906D01*
X10394271Y-8953859D02*
X10375223Y-8944335D01*
X10375223Y-8944335D02*
X10365699Y-8925287D01*
X10365699Y-8925287D02*
X10365699Y-8753859D01*
X10499033Y-8953859D02*
X10479985Y-8944335D01*
X10479985Y-8944335D02*
X10470461Y-8925287D01*
X10470461Y-8925287D02*
X10470461Y-8753859D01*
X10727604Y-8953859D02*
X10727604Y-8753859D01*
X10727604Y-8753859D02*
X10794271Y-8896716D01*
X10794271Y-8896716D02*
X10860938Y-8753859D01*
X10860938Y-8753859D02*
X10860938Y-8953859D01*
X11041890Y-8953859D02*
X11041890Y-8849097D01*
X11041890Y-8849097D02*
X11032366Y-8830049D01*
X11032366Y-8830049D02*
X11013319Y-8820525D01*
X11013319Y-8820525D02*
X10975223Y-8820525D01*
X10975223Y-8820525D02*
X10956176Y-8830049D01*
X11041890Y-8944335D02*
X11022842Y-8953859D01*
X11022842Y-8953859D02*
X10975223Y-8953859D01*
X10975223Y-8953859D02*
X10956176Y-8944335D01*
X10956176Y-8944335D02*
X10946652Y-8925287D01*
X10946652Y-8925287D02*
X10946652Y-8906240D01*
X10946652Y-8906240D02*
X10956176Y-8887192D01*
X10956176Y-8887192D02*
X10975223Y-8877668D01*
X10975223Y-8877668D02*
X11022842Y-8877668D01*
X11022842Y-8877668D02*
X11041890Y-8868145D01*
X11137128Y-8820525D02*
X11137128Y-9020525D01*
X11137128Y-8830049D02*
X11156176Y-8820525D01*
X11156176Y-8820525D02*
X11194271Y-8820525D01*
X11194271Y-8820525D02*
X11213318Y-8830049D01*
X11213318Y-8830049D02*
X11222842Y-8839573D01*
X11222842Y-8839573D02*
X11232366Y-8858621D01*
X11232366Y-8858621D02*
X11232366Y-8915764D01*
X11232366Y-8915764D02*
X11222842Y-8934811D01*
X11222842Y-8934811D02*
X11213318Y-8944335D01*
X11213318Y-8944335D02*
X11194271Y-8953859D01*
X11194271Y-8953859D02*
X11156176Y-8953859D01*
X11156176Y-8953859D02*
X11137128Y-8944335D01*
X11318080Y-8934811D02*
X11327604Y-8944335D01*
X11327604Y-8944335D02*
X11318080Y-8953859D01*
X11318080Y-8953859D02*
X11308557Y-8944335D01*
X11308557Y-8944335D02*
X11318080Y-8934811D01*
X11318080Y-8934811D02*
X11318080Y-8953859D01*
X11318080Y-8830049D02*
X11327604Y-8839573D01*
X11327604Y-8839573D02*
X11318080Y-8849097D01*
X11318080Y-8849097D02*
X11308557Y-8839573D01*
X11308557Y-8839573D02*
X11318080Y-8830049D01*
X11318080Y-8830049D02*
X11318080Y-8849097D01*
D12*
X9655875Y-9267375D02*
X9685875Y-9297375D01*
X9685875Y-9267375D02*
X9655875Y-9297375D01*
D11*
X9984747Y-9173859D02*
X10003795Y-9173859D01*
X10003795Y-9173859D02*
X10022842Y-9183383D01*
X10022842Y-9183383D02*
X10032366Y-9192906D01*
X10032366Y-9192906D02*
X10041890Y-9211954D01*
X10041890Y-9211954D02*
X10051414Y-9250049D01*
X10051414Y-9250049D02*
X10051414Y-9297668D01*
X10051414Y-9297668D02*
X10041890Y-9335764D01*
X10041890Y-9335764D02*
X10032366Y-9354811D01*
X10032366Y-9354811D02*
X10022842Y-9364335D01*
X10022842Y-9364335D02*
X10003795Y-9373859D01*
X10003795Y-9373859D02*
X9984747Y-9373859D01*
X9984747Y-9373859D02*
X9965699Y-9364335D01*
X9965699Y-9364335D02*
X9956176Y-9354811D01*
X9956176Y-9354811D02*
X9946652Y-9335764D01*
X9946652Y-9335764D02*
X9937128Y-9297668D01*
X9937128Y-9297668D02*
X9937128Y-9250049D01*
X9937128Y-9250049D02*
X9946652Y-9211954D01*
X9946652Y-9211954D02*
X9956176Y-9192906D01*
X9956176Y-9192906D02*
X9965699Y-9183383D01*
X9965699Y-9183383D02*
X9984747Y-9173859D01*
X10137128Y-9354811D02*
X10146652Y-9364335D01*
X10146652Y-9364335D02*
X10137128Y-9373859D01*
X10137128Y-9373859D02*
X10127604Y-9364335D01*
X10127604Y-9364335D02*
X10137128Y-9354811D01*
X10137128Y-9354811D02*
X10137128Y-9373859D01*
X10213319Y-9173859D02*
X10337128Y-9173859D01*
X10337128Y-9173859D02*
X10270461Y-9250049D01*
X10270461Y-9250049D02*
X10299033Y-9250049D01*
X10299033Y-9250049D02*
X10318080Y-9259573D01*
X10318080Y-9259573D02*
X10327604Y-9269097D01*
X10327604Y-9269097D02*
X10337128Y-9288145D01*
X10337128Y-9288145D02*
X10337128Y-9335764D01*
X10337128Y-9335764D02*
X10327604Y-9354811D01*
X10327604Y-9354811D02*
X10318080Y-9364335D01*
X10318080Y-9364335D02*
X10299033Y-9373859D01*
X10299033Y-9373859D02*
X10241890Y-9373859D01*
X10241890Y-9373859D02*
X10222842Y-9364335D01*
X10222842Y-9364335D02*
X10213319Y-9354811D01*
X10460938Y-9173859D02*
X10479985Y-9173859D01*
X10479985Y-9173859D02*
X10499033Y-9183383D01*
X10499033Y-9183383D02*
X10508557Y-9192906D01*
X10508557Y-9192906D02*
X10518080Y-9211954D01*
X10518080Y-9211954D02*
X10527604Y-9250049D01*
X10527604Y-9250049D02*
X10527604Y-9297668D01*
X10527604Y-9297668D02*
X10518080Y-9335764D01*
X10518080Y-9335764D02*
X10508557Y-9354811D01*
X10508557Y-9354811D02*
X10499033Y-9364335D01*
X10499033Y-9364335D02*
X10479985Y-9373859D01*
X10479985Y-9373859D02*
X10460938Y-9373859D01*
X10460938Y-9373859D02*
X10441890Y-9364335D01*
X10441890Y-9364335D02*
X10432366Y-9354811D01*
X10432366Y-9354811D02*
X10422842Y-9335764D01*
X10422842Y-9335764D02*
X10413319Y-9297668D01*
X10413319Y-9297668D02*
X10413319Y-9250049D01*
X10413319Y-9250049D02*
X10422842Y-9211954D01*
X10422842Y-9211954D02*
X10432366Y-9192906D01*
X10432366Y-9192906D02*
X10441890Y-9183383D01*
X10441890Y-9183383D02*
X10460938Y-9173859D01*
X10651414Y-9173859D02*
X10670461Y-9173859D01*
X10670461Y-9173859D02*
X10689509Y-9183383D01*
X10689509Y-9183383D02*
X10699033Y-9192906D01*
X10699033Y-9192906D02*
X10708557Y-9211954D01*
X10708557Y-9211954D02*
X10718080Y-9250049D01*
X10718080Y-9250049D02*
X10718080Y-9297668D01*
X10718080Y-9297668D02*
X10708557Y-9335764D01*
X10708557Y-9335764D02*
X10699033Y-9354811D01*
X10699033Y-9354811D02*
X10689509Y-9364335D01*
X10689509Y-9364335D02*
X10670461Y-9373859D01*
X10670461Y-9373859D02*
X10651414Y-9373859D01*
X10651414Y-9373859D02*
X10632366Y-9364335D01*
X10632366Y-9364335D02*
X10622842Y-9354811D01*
X10622842Y-9354811D02*
X10613319Y-9335764D01*
X10613319Y-9335764D02*
X10603795Y-9297668D01*
X10603795Y-9297668D02*
X10603795Y-9250049D01*
X10603795Y-9250049D02*
X10613319Y-9211954D01*
X10613319Y-9211954D02*
X10622842Y-9192906D01*
X10622842Y-9192906D02*
X10632366Y-9183383D01*
X10632366Y-9183383D02*
X10651414Y-9173859D01*
X10803795Y-9373859D02*
X10803795Y-9240525D01*
X10803795Y-9259573D02*
X10813319Y-9250049D01*
X10813319Y-9250049D02*
X10832366Y-9240525D01*
X10832366Y-9240525D02*
X10860938Y-9240525D01*
X10860938Y-9240525D02*
X10879985Y-9250049D01*
X10879985Y-9250049D02*
X10889509Y-9269097D01*
X10889509Y-9269097D02*
X10889509Y-9373859D01*
X10889509Y-9269097D02*
X10899033Y-9250049D01*
X10899033Y-9250049D02*
X10918080Y-9240525D01*
X10918080Y-9240525D02*
X10946652Y-9240525D01*
X10946652Y-9240525D02*
X10965700Y-9250049D01*
X10965700Y-9250049D02*
X10975223Y-9269097D01*
X10975223Y-9269097D02*
X10975223Y-9373859D01*
X11070461Y-9373859D02*
X11070461Y-9240525D01*
X11070461Y-9259573D02*
X11079985Y-9250049D01*
X11079985Y-9250049D02*
X11099033Y-9240525D01*
X11099033Y-9240525D02*
X11127604Y-9240525D01*
X11127604Y-9240525D02*
X11146652Y-9250049D01*
X11146652Y-9250049D02*
X11156176Y-9269097D01*
X11156176Y-9269097D02*
X11156176Y-9373859D01*
X11156176Y-9269097D02*
X11165700Y-9250049D01*
X11165700Y-9250049D02*
X11184747Y-9240525D01*
X11184747Y-9240525D02*
X11213318Y-9240525D01*
X11213318Y-9240525D02*
X11232366Y-9250049D01*
X11232366Y-9250049D02*
X11241890Y-9269097D01*
X11241890Y-9269097D02*
X11241890Y-9373859D01*
X11632366Y-9164335D02*
X11460938Y-9421478D01*
X11889509Y-9173859D02*
X11908557Y-9173859D01*
X11908557Y-9173859D02*
X11927604Y-9183383D01*
X11927604Y-9183383D02*
X11937128Y-9192906D01*
X11937128Y-9192906D02*
X11946652Y-9211954D01*
X11946652Y-9211954D02*
X11956176Y-9250049D01*
X11956176Y-9250049D02*
X11956176Y-9297668D01*
X11956176Y-9297668D02*
X11946652Y-9335764D01*
X11946652Y-9335764D02*
X11937128Y-9354811D01*
X11937128Y-9354811D02*
X11927604Y-9364335D01*
X11927604Y-9364335D02*
X11908557Y-9373859D01*
X11908557Y-9373859D02*
X11889509Y-9373859D01*
X11889509Y-9373859D02*
X11870461Y-9364335D01*
X11870461Y-9364335D02*
X11860938Y-9354811D01*
X11860938Y-9354811D02*
X11851414Y-9335764D01*
X11851414Y-9335764D02*
X11841890Y-9297668D01*
X11841890Y-9297668D02*
X11841890Y-9250049D01*
X11841890Y-9250049D02*
X11851414Y-9211954D01*
X11851414Y-9211954D02*
X11860938Y-9192906D01*
X11860938Y-9192906D02*
X11870461Y-9183383D01*
X11870461Y-9183383D02*
X11889509Y-9173859D01*
X12041890Y-9354811D02*
X12051414Y-9364335D01*
X12051414Y-9364335D02*
X12041890Y-9373859D01*
X12041890Y-9373859D02*
X12032366Y-9364335D01*
X12032366Y-9364335D02*
X12041890Y-9354811D01*
X12041890Y-9354811D02*
X12041890Y-9373859D01*
X12175223Y-9173859D02*
X12194271Y-9173859D01*
X12194271Y-9173859D02*
X12213319Y-9183383D01*
X12213319Y-9183383D02*
X12222842Y-9192906D01*
X12222842Y-9192906D02*
X12232366Y-9211954D01*
X12232366Y-9211954D02*
X12241890Y-9250049D01*
X12241890Y-9250049D02*
X12241890Y-9297668D01*
X12241890Y-9297668D02*
X12232366Y-9335764D01*
X12232366Y-9335764D02*
X12222842Y-9354811D01*
X12222842Y-9354811D02*
X12213319Y-9364335D01*
X12213319Y-9364335D02*
X12194271Y-9373859D01*
X12194271Y-9373859D02*
X12175223Y-9373859D01*
X12175223Y-9373859D02*
X12156176Y-9364335D01*
X12156176Y-9364335D02*
X12146652Y-9354811D01*
X12146652Y-9354811D02*
X12137128Y-9335764D01*
X12137128Y-9335764D02*
X12127604Y-9297668D01*
X12127604Y-9297668D02*
X12127604Y-9250049D01*
X12127604Y-9250049D02*
X12137128Y-9211954D01*
X12137128Y-9211954D02*
X12146652Y-9192906D01*
X12146652Y-9192906D02*
X12156176Y-9183383D01*
X12156176Y-9183383D02*
X12175223Y-9173859D01*
X12432366Y-9373859D02*
X12318081Y-9373859D01*
X12375223Y-9373859D02*
X12375223Y-9173859D01*
X12375223Y-9173859D02*
X12356176Y-9202430D01*
X12356176Y-9202430D02*
X12337128Y-9221478D01*
X12337128Y-9221478D02*
X12318081Y-9231002D01*
X12622842Y-9373859D02*
X12508557Y-9373859D01*
X12565700Y-9373859D02*
X12565700Y-9173859D01*
X12565700Y-9173859D02*
X12546652Y-9202430D01*
X12546652Y-9202430D02*
X12527604Y-9221478D01*
X12527604Y-9221478D02*
X12508557Y-9231002D01*
X12737128Y-9259573D02*
X12718081Y-9250049D01*
X12718081Y-9250049D02*
X12708557Y-9240525D01*
X12708557Y-9240525D02*
X12699033Y-9221478D01*
X12699033Y-9221478D02*
X12699033Y-9211954D01*
X12699033Y-9211954D02*
X12708557Y-9192906D01*
X12708557Y-9192906D02*
X12718081Y-9183383D01*
X12718081Y-9183383D02*
X12737128Y-9173859D01*
X12737128Y-9173859D02*
X12775223Y-9173859D01*
X12775223Y-9173859D02*
X12794271Y-9183383D01*
X12794271Y-9183383D02*
X12803795Y-9192906D01*
X12803795Y-9192906D02*
X12813319Y-9211954D01*
X12813319Y-9211954D02*
X12813319Y-9221478D01*
X12813319Y-9221478D02*
X12803795Y-9240525D01*
X12803795Y-9240525D02*
X12794271Y-9250049D01*
X12794271Y-9250049D02*
X12775223Y-9259573D01*
X12775223Y-9259573D02*
X12737128Y-9259573D01*
X12737128Y-9259573D02*
X12718081Y-9269097D01*
X12718081Y-9269097D02*
X12708557Y-9278621D01*
X12708557Y-9278621D02*
X12699033Y-9297668D01*
X12699033Y-9297668D02*
X12699033Y-9335764D01*
X12699033Y-9335764D02*
X12708557Y-9354811D01*
X12708557Y-9354811D02*
X12718081Y-9364335D01*
X12718081Y-9364335D02*
X12737128Y-9373859D01*
X12737128Y-9373859D02*
X12775223Y-9373859D01*
X12775223Y-9373859D02*
X12794271Y-9364335D01*
X12794271Y-9364335D02*
X12803795Y-9354811D01*
X12803795Y-9354811D02*
X12813319Y-9335764D01*
X12813319Y-9335764D02*
X12813319Y-9297668D01*
X12813319Y-9297668D02*
X12803795Y-9278621D01*
X12803795Y-9278621D02*
X12794271Y-9269097D01*
X12794271Y-9269097D02*
X12775223Y-9259573D01*
X12889509Y-9173859D02*
X12889509Y-9211954D01*
X12965700Y-9173859D02*
X12965700Y-9211954D01*
X13260938Y-9450049D02*
X13251414Y-9440525D01*
X13251414Y-9440525D02*
X13232366Y-9411954D01*
X13232366Y-9411954D02*
X13222843Y-9392906D01*
X13222843Y-9392906D02*
X13213319Y-9364335D01*
X13213319Y-9364335D02*
X13203795Y-9316716D01*
X13203795Y-9316716D02*
X13203795Y-9278621D01*
X13203795Y-9278621D02*
X13213319Y-9231002D01*
X13213319Y-9231002D02*
X13222843Y-9202430D01*
X13222843Y-9202430D02*
X13232366Y-9183383D01*
X13232366Y-9183383D02*
X13251414Y-9154811D01*
X13251414Y-9154811D02*
X13260938Y-9145287D01*
X13422843Y-9240525D02*
X13422843Y-9373859D01*
X13375223Y-9164335D02*
X13327604Y-9307192D01*
X13327604Y-9307192D02*
X13451414Y-9307192D01*
X13679985Y-9373859D02*
X13679985Y-9173859D01*
X13765700Y-9373859D02*
X13765700Y-9269097D01*
X13765700Y-9269097D02*
X13756176Y-9250049D01*
X13756176Y-9250049D02*
X13737128Y-9240525D01*
X13737128Y-9240525D02*
X13708557Y-9240525D01*
X13708557Y-9240525D02*
X13689509Y-9250049D01*
X13689509Y-9250049D02*
X13679985Y-9259573D01*
X13889509Y-9373859D02*
X13870462Y-9364335D01*
X13870462Y-9364335D02*
X13860938Y-9354811D01*
X13860938Y-9354811D02*
X13851414Y-9335764D01*
X13851414Y-9335764D02*
X13851414Y-9278621D01*
X13851414Y-9278621D02*
X13860938Y-9259573D01*
X13860938Y-9259573D02*
X13870462Y-9250049D01*
X13870462Y-9250049D02*
X13889509Y-9240525D01*
X13889509Y-9240525D02*
X13918081Y-9240525D01*
X13918081Y-9240525D02*
X13937128Y-9250049D01*
X13937128Y-9250049D02*
X13946652Y-9259573D01*
X13946652Y-9259573D02*
X13956176Y-9278621D01*
X13956176Y-9278621D02*
X13956176Y-9335764D01*
X13956176Y-9335764D02*
X13946652Y-9354811D01*
X13946652Y-9354811D02*
X13937128Y-9364335D01*
X13937128Y-9364335D02*
X13918081Y-9373859D01*
X13918081Y-9373859D02*
X13889509Y-9373859D01*
X14070462Y-9373859D02*
X14051414Y-9364335D01*
X14051414Y-9364335D02*
X14041890Y-9345287D01*
X14041890Y-9345287D02*
X14041890Y-9173859D01*
X14222843Y-9364335D02*
X14203795Y-9373859D01*
X14203795Y-9373859D02*
X14165700Y-9373859D01*
X14165700Y-9373859D02*
X14146652Y-9364335D01*
X14146652Y-9364335D02*
X14137128Y-9345287D01*
X14137128Y-9345287D02*
X14137128Y-9269097D01*
X14137128Y-9269097D02*
X14146652Y-9250049D01*
X14146652Y-9250049D02*
X14165700Y-9240525D01*
X14165700Y-9240525D02*
X14203795Y-9240525D01*
X14203795Y-9240525D02*
X14222843Y-9250049D01*
X14222843Y-9250049D02*
X14232366Y-9269097D01*
X14232366Y-9269097D02*
X14232366Y-9288145D01*
X14232366Y-9288145D02*
X14137128Y-9307192D01*
X14308557Y-9364335D02*
X14327605Y-9373859D01*
X14327605Y-9373859D02*
X14365700Y-9373859D01*
X14365700Y-9373859D02*
X14384747Y-9364335D01*
X14384747Y-9364335D02*
X14394271Y-9345287D01*
X14394271Y-9345287D02*
X14394271Y-9335764D01*
X14394271Y-9335764D02*
X14384747Y-9316716D01*
X14384747Y-9316716D02*
X14365700Y-9307192D01*
X14365700Y-9307192D02*
X14337128Y-9307192D01*
X14337128Y-9307192D02*
X14318081Y-9297668D01*
X14318081Y-9297668D02*
X14308557Y-9278621D01*
X14308557Y-9278621D02*
X14308557Y-9269097D01*
X14308557Y-9269097D02*
X14318081Y-9250049D01*
X14318081Y-9250049D02*
X14337128Y-9240525D01*
X14337128Y-9240525D02*
X14365700Y-9240525D01*
X14365700Y-9240525D02*
X14384747Y-9250049D01*
X14460938Y-9450049D02*
X14470462Y-9440525D01*
X14470462Y-9440525D02*
X14489509Y-9411954D01*
X14489509Y-9411954D02*
X14499033Y-9392906D01*
X14499033Y-9392906D02*
X14508557Y-9364335D01*
X14508557Y-9364335D02*
X14518081Y-9316716D01*
X14518081Y-9316716D02*
X14518081Y-9278621D01*
X14518081Y-9278621D02*
X14508557Y-9231002D01*
X14508557Y-9231002D02*
X14499033Y-9202430D01*
X14499033Y-9202430D02*
X14489509Y-9183383D01*
X14489509Y-9183383D02*
X14470462Y-9154811D01*
X14470462Y-9154811D02*
X14460938Y-9145287D01*
D12*
X9685875Y-9546375D02*
G75*
G02*
X9596975Y-9546375I-44450J0D01*
G01*
X9596975Y-9546375D02*
G75*
G02*
X9685875Y-9546375I44450J0D01*
G01*
D11*
X9984747Y-9437859D02*
X10003795Y-9437859D01*
X10003795Y-9437859D02*
X10022842Y-9447383D01*
X10022842Y-9447383D02*
X10032366Y-9456906D01*
X10032366Y-9456906D02*
X10041890Y-9475954D01*
X10041890Y-9475954D02*
X10051414Y-9514049D01*
X10051414Y-9514049D02*
X10051414Y-9561668D01*
X10051414Y-9561668D02*
X10041890Y-9599764D01*
X10041890Y-9599764D02*
X10032366Y-9618811D01*
X10032366Y-9618811D02*
X10022842Y-9628335D01*
X10022842Y-9628335D02*
X10003795Y-9637859D01*
X10003795Y-9637859D02*
X9984747Y-9637859D01*
X9984747Y-9637859D02*
X9965699Y-9628335D01*
X9965699Y-9628335D02*
X9956176Y-9618811D01*
X9956176Y-9618811D02*
X9946652Y-9599764D01*
X9946652Y-9599764D02*
X9937128Y-9561668D01*
X9937128Y-9561668D02*
X9937128Y-9514049D01*
X9937128Y-9514049D02*
X9946652Y-9475954D01*
X9946652Y-9475954D02*
X9956176Y-9456906D01*
X9956176Y-9456906D02*
X9965699Y-9447383D01*
X9965699Y-9447383D02*
X9984747Y-9437859D01*
X10137128Y-9618811D02*
X10146652Y-9628335D01*
X10146652Y-9628335D02*
X10137128Y-9637859D01*
X10137128Y-9637859D02*
X10127604Y-9628335D01*
X10127604Y-9628335D02*
X10137128Y-9618811D01*
X10137128Y-9618811D02*
X10137128Y-9637859D01*
X10260938Y-9523573D02*
X10241890Y-9514049D01*
X10241890Y-9514049D02*
X10232366Y-9504525D01*
X10232366Y-9504525D02*
X10222842Y-9485478D01*
X10222842Y-9485478D02*
X10222842Y-9475954D01*
X10222842Y-9475954D02*
X10232366Y-9456906D01*
X10232366Y-9456906D02*
X10241890Y-9447383D01*
X10241890Y-9447383D02*
X10260938Y-9437859D01*
X10260938Y-9437859D02*
X10299033Y-9437859D01*
X10299033Y-9437859D02*
X10318080Y-9447383D01*
X10318080Y-9447383D02*
X10327604Y-9456906D01*
X10327604Y-9456906D02*
X10337128Y-9475954D01*
X10337128Y-9475954D02*
X10337128Y-9485478D01*
X10337128Y-9485478D02*
X10327604Y-9504525D01*
X10327604Y-9504525D02*
X10318080Y-9514049D01*
X10318080Y-9514049D02*
X10299033Y-9523573D01*
X10299033Y-9523573D02*
X10260938Y-9523573D01*
X10260938Y-9523573D02*
X10241890Y-9533097D01*
X10241890Y-9533097D02*
X10232366Y-9542621D01*
X10232366Y-9542621D02*
X10222842Y-9561668D01*
X10222842Y-9561668D02*
X10222842Y-9599764D01*
X10222842Y-9599764D02*
X10232366Y-9618811D01*
X10232366Y-9618811D02*
X10241890Y-9628335D01*
X10241890Y-9628335D02*
X10260938Y-9637859D01*
X10260938Y-9637859D02*
X10299033Y-9637859D01*
X10299033Y-9637859D02*
X10318080Y-9628335D01*
X10318080Y-9628335D02*
X10327604Y-9618811D01*
X10327604Y-9618811D02*
X10337128Y-9599764D01*
X10337128Y-9599764D02*
X10337128Y-9561668D01*
X10337128Y-9561668D02*
X10327604Y-9542621D01*
X10327604Y-9542621D02*
X10318080Y-9533097D01*
X10318080Y-9533097D02*
X10299033Y-9523573D01*
X10451414Y-9523573D02*
X10432366Y-9514049D01*
X10432366Y-9514049D02*
X10422842Y-9504525D01*
X10422842Y-9504525D02*
X10413319Y-9485478D01*
X10413319Y-9485478D02*
X10413319Y-9475954D01*
X10413319Y-9475954D02*
X10422842Y-9456906D01*
X10422842Y-9456906D02*
X10432366Y-9447383D01*
X10432366Y-9447383D02*
X10451414Y-9437859D01*
X10451414Y-9437859D02*
X10489509Y-9437859D01*
X10489509Y-9437859D02*
X10508557Y-9447383D01*
X10508557Y-9447383D02*
X10518080Y-9456906D01*
X10518080Y-9456906D02*
X10527604Y-9475954D01*
X10527604Y-9475954D02*
X10527604Y-9485478D01*
X10527604Y-9485478D02*
X10518080Y-9504525D01*
X10518080Y-9504525D02*
X10508557Y-9514049D01*
X10508557Y-9514049D02*
X10489509Y-9523573D01*
X10489509Y-9523573D02*
X10451414Y-9523573D01*
X10451414Y-9523573D02*
X10432366Y-9533097D01*
X10432366Y-9533097D02*
X10422842Y-9542621D01*
X10422842Y-9542621D02*
X10413319Y-9561668D01*
X10413319Y-9561668D02*
X10413319Y-9599764D01*
X10413319Y-9599764D02*
X10422842Y-9618811D01*
X10422842Y-9618811D02*
X10432366Y-9628335D01*
X10432366Y-9628335D02*
X10451414Y-9637859D01*
X10451414Y-9637859D02*
X10489509Y-9637859D01*
X10489509Y-9637859D02*
X10508557Y-9628335D01*
X10508557Y-9628335D02*
X10518080Y-9618811D01*
X10518080Y-9618811D02*
X10527604Y-9599764D01*
X10527604Y-9599764D02*
X10527604Y-9561668D01*
X10527604Y-9561668D02*
X10518080Y-9542621D01*
X10518080Y-9542621D02*
X10508557Y-9533097D01*
X10508557Y-9533097D02*
X10489509Y-9523573D01*
X10622842Y-9637859D02*
X10660938Y-9637859D01*
X10660938Y-9637859D02*
X10679985Y-9628335D01*
X10679985Y-9628335D02*
X10689509Y-9618811D01*
X10689509Y-9618811D02*
X10708557Y-9590240D01*
X10708557Y-9590240D02*
X10718080Y-9552145D01*
X10718080Y-9552145D02*
X10718080Y-9475954D01*
X10718080Y-9475954D02*
X10708557Y-9456906D01*
X10708557Y-9456906D02*
X10699033Y-9447383D01*
X10699033Y-9447383D02*
X10679985Y-9437859D01*
X10679985Y-9437859D02*
X10641890Y-9437859D01*
X10641890Y-9437859D02*
X10622842Y-9447383D01*
X10622842Y-9447383D02*
X10613319Y-9456906D01*
X10613319Y-9456906D02*
X10603795Y-9475954D01*
X10603795Y-9475954D02*
X10603795Y-9523573D01*
X10603795Y-9523573D02*
X10613319Y-9542621D01*
X10613319Y-9542621D02*
X10622842Y-9552145D01*
X10622842Y-9552145D02*
X10641890Y-9561668D01*
X10641890Y-9561668D02*
X10679985Y-9561668D01*
X10679985Y-9561668D02*
X10699033Y-9552145D01*
X10699033Y-9552145D02*
X10708557Y-9542621D01*
X10708557Y-9542621D02*
X10718080Y-9523573D01*
X10803795Y-9637859D02*
X10803795Y-9504525D01*
X10803795Y-9523573D02*
X10813319Y-9514049D01*
X10813319Y-9514049D02*
X10832366Y-9504525D01*
X10832366Y-9504525D02*
X10860938Y-9504525D01*
X10860938Y-9504525D02*
X10879985Y-9514049D01*
X10879985Y-9514049D02*
X10889509Y-9533097D01*
X10889509Y-9533097D02*
X10889509Y-9637859D01*
X10889509Y-9533097D02*
X10899033Y-9514049D01*
X10899033Y-9514049D02*
X10918080Y-9504525D01*
X10918080Y-9504525D02*
X10946652Y-9504525D01*
X10946652Y-9504525D02*
X10965700Y-9514049D01*
X10965700Y-9514049D02*
X10975223Y-9533097D01*
X10975223Y-9533097D02*
X10975223Y-9637859D01*
X11070461Y-9637859D02*
X11070461Y-9504525D01*
X11070461Y-9523573D02*
X11079985Y-9514049D01*
X11079985Y-9514049D02*
X11099033Y-9504525D01*
X11099033Y-9504525D02*
X11127604Y-9504525D01*
X11127604Y-9504525D02*
X11146652Y-9514049D01*
X11146652Y-9514049D02*
X11156176Y-9533097D01*
X11156176Y-9533097D02*
X11156176Y-9637859D01*
X11156176Y-9533097D02*
X11165700Y-9514049D01*
X11165700Y-9514049D02*
X11184747Y-9504525D01*
X11184747Y-9504525D02*
X11213318Y-9504525D01*
X11213318Y-9504525D02*
X11232366Y-9514049D01*
X11232366Y-9514049D02*
X11241890Y-9533097D01*
X11241890Y-9533097D02*
X11241890Y-9637859D01*
X11632366Y-9428335D02*
X11460938Y-9685478D01*
X11889509Y-9437859D02*
X11908557Y-9437859D01*
X11908557Y-9437859D02*
X11927604Y-9447383D01*
X11927604Y-9447383D02*
X11937128Y-9456906D01*
X11937128Y-9456906D02*
X11946652Y-9475954D01*
X11946652Y-9475954D02*
X11956176Y-9514049D01*
X11956176Y-9514049D02*
X11956176Y-9561668D01*
X11956176Y-9561668D02*
X11946652Y-9599764D01*
X11946652Y-9599764D02*
X11937128Y-9618811D01*
X11937128Y-9618811D02*
X11927604Y-9628335D01*
X11927604Y-9628335D02*
X11908557Y-9637859D01*
X11908557Y-9637859D02*
X11889509Y-9637859D01*
X11889509Y-9637859D02*
X11870461Y-9628335D01*
X11870461Y-9628335D02*
X11860938Y-9618811D01*
X11860938Y-9618811D02*
X11851414Y-9599764D01*
X11851414Y-9599764D02*
X11841890Y-9561668D01*
X11841890Y-9561668D02*
X11841890Y-9514049D01*
X11841890Y-9514049D02*
X11851414Y-9475954D01*
X11851414Y-9475954D02*
X11860938Y-9456906D01*
X11860938Y-9456906D02*
X11870461Y-9447383D01*
X11870461Y-9447383D02*
X11889509Y-9437859D01*
X12041890Y-9618811D02*
X12051414Y-9628335D01*
X12051414Y-9628335D02*
X12041890Y-9637859D01*
X12041890Y-9637859D02*
X12032366Y-9628335D01*
X12032366Y-9628335D02*
X12041890Y-9618811D01*
X12041890Y-9618811D02*
X12041890Y-9637859D01*
X12175223Y-9437859D02*
X12194271Y-9437859D01*
X12194271Y-9437859D02*
X12213319Y-9447383D01*
X12213319Y-9447383D02*
X12222842Y-9456906D01*
X12222842Y-9456906D02*
X12232366Y-9475954D01*
X12232366Y-9475954D02*
X12241890Y-9514049D01*
X12241890Y-9514049D02*
X12241890Y-9561668D01*
X12241890Y-9561668D02*
X12232366Y-9599764D01*
X12232366Y-9599764D02*
X12222842Y-9618811D01*
X12222842Y-9618811D02*
X12213319Y-9628335D01*
X12213319Y-9628335D02*
X12194271Y-9637859D01*
X12194271Y-9637859D02*
X12175223Y-9637859D01*
X12175223Y-9637859D02*
X12156176Y-9628335D01*
X12156176Y-9628335D02*
X12146652Y-9618811D01*
X12146652Y-9618811D02*
X12137128Y-9599764D01*
X12137128Y-9599764D02*
X12127604Y-9561668D01*
X12127604Y-9561668D02*
X12127604Y-9514049D01*
X12127604Y-9514049D02*
X12137128Y-9475954D01*
X12137128Y-9475954D02*
X12146652Y-9456906D01*
X12146652Y-9456906D02*
X12156176Y-9447383D01*
X12156176Y-9447383D02*
X12175223Y-9437859D01*
X12308557Y-9437859D02*
X12432366Y-9437859D01*
X12432366Y-9437859D02*
X12365700Y-9514049D01*
X12365700Y-9514049D02*
X12394271Y-9514049D01*
X12394271Y-9514049D02*
X12413319Y-9523573D01*
X12413319Y-9523573D02*
X12422842Y-9533097D01*
X12422842Y-9533097D02*
X12432366Y-9552145D01*
X12432366Y-9552145D02*
X12432366Y-9599764D01*
X12432366Y-9599764D02*
X12422842Y-9618811D01*
X12422842Y-9618811D02*
X12413319Y-9628335D01*
X12413319Y-9628335D02*
X12394271Y-9637859D01*
X12394271Y-9637859D02*
X12337128Y-9637859D01*
X12337128Y-9637859D02*
X12318081Y-9628335D01*
X12318081Y-9628335D02*
X12308557Y-9618811D01*
X12613319Y-9437859D02*
X12518081Y-9437859D01*
X12518081Y-9437859D02*
X12508557Y-9533097D01*
X12508557Y-9533097D02*
X12518081Y-9523573D01*
X12518081Y-9523573D02*
X12537128Y-9514049D01*
X12537128Y-9514049D02*
X12584747Y-9514049D01*
X12584747Y-9514049D02*
X12603795Y-9523573D01*
X12603795Y-9523573D02*
X12613319Y-9533097D01*
X12613319Y-9533097D02*
X12622842Y-9552145D01*
X12622842Y-9552145D02*
X12622842Y-9599764D01*
X12622842Y-9599764D02*
X12613319Y-9618811D01*
X12613319Y-9618811D02*
X12603795Y-9628335D01*
X12603795Y-9628335D02*
X12584747Y-9637859D01*
X12584747Y-9637859D02*
X12537128Y-9637859D01*
X12537128Y-9637859D02*
X12518081Y-9628335D01*
X12518081Y-9628335D02*
X12508557Y-9618811D01*
X12746652Y-9437859D02*
X12765700Y-9437859D01*
X12765700Y-9437859D02*
X12784747Y-9447383D01*
X12784747Y-9447383D02*
X12794271Y-9456906D01*
X12794271Y-9456906D02*
X12803795Y-9475954D01*
X12803795Y-9475954D02*
X12813319Y-9514049D01*
X12813319Y-9514049D02*
X12813319Y-9561668D01*
X12813319Y-9561668D02*
X12803795Y-9599764D01*
X12803795Y-9599764D02*
X12794271Y-9618811D01*
X12794271Y-9618811D02*
X12784747Y-9628335D01*
X12784747Y-9628335D02*
X12765700Y-9637859D01*
X12765700Y-9637859D02*
X12746652Y-9637859D01*
X12746652Y-9637859D02*
X12727604Y-9628335D01*
X12727604Y-9628335D02*
X12718081Y-9618811D01*
X12718081Y-9618811D02*
X12708557Y-9599764D01*
X12708557Y-9599764D02*
X12699033Y-9561668D01*
X12699033Y-9561668D02*
X12699033Y-9514049D01*
X12699033Y-9514049D02*
X12708557Y-9475954D01*
X12708557Y-9475954D02*
X12718081Y-9456906D01*
X12718081Y-9456906D02*
X12727604Y-9447383D01*
X12727604Y-9447383D02*
X12746652Y-9437859D01*
X12889509Y-9437859D02*
X12889509Y-9475954D01*
X12965700Y-9437859D02*
X12965700Y-9475954D01*
X13260938Y-9714049D02*
X13251414Y-9704525D01*
X13251414Y-9704525D02*
X13232366Y-9675954D01*
X13232366Y-9675954D02*
X13222843Y-9656906D01*
X13222843Y-9656906D02*
X13213319Y-9628335D01*
X13213319Y-9628335D02*
X13203795Y-9580716D01*
X13203795Y-9580716D02*
X13203795Y-9542621D01*
X13203795Y-9542621D02*
X13213319Y-9495002D01*
X13213319Y-9495002D02*
X13222843Y-9466430D01*
X13222843Y-9466430D02*
X13232366Y-9447383D01*
X13232366Y-9447383D02*
X13251414Y-9418811D01*
X13251414Y-9418811D02*
X13260938Y-9409287D01*
X13441890Y-9637859D02*
X13327604Y-9637859D01*
X13384747Y-9637859D02*
X13384747Y-9437859D01*
X13384747Y-9437859D02*
X13365700Y-9466430D01*
X13365700Y-9466430D02*
X13346652Y-9485478D01*
X13346652Y-9485478D02*
X13327604Y-9495002D01*
X13613319Y-9504525D02*
X13613319Y-9637859D01*
X13565700Y-9428335D02*
X13518081Y-9571192D01*
X13518081Y-9571192D02*
X13641890Y-9571192D01*
X13870462Y-9637859D02*
X13870462Y-9437859D01*
X13956176Y-9637859D02*
X13956176Y-9533097D01*
X13956176Y-9533097D02*
X13946652Y-9514049D01*
X13946652Y-9514049D02*
X13927605Y-9504525D01*
X13927605Y-9504525D02*
X13899033Y-9504525D01*
X13899033Y-9504525D02*
X13879985Y-9514049D01*
X13879985Y-9514049D02*
X13870462Y-9523573D01*
X14079985Y-9637859D02*
X14060938Y-9628335D01*
X14060938Y-9628335D02*
X14051414Y-9618811D01*
X14051414Y-9618811D02*
X14041890Y-9599764D01*
X14041890Y-9599764D02*
X14041890Y-9542621D01*
X14041890Y-9542621D02*
X14051414Y-9523573D01*
X14051414Y-9523573D02*
X14060938Y-9514049D01*
X14060938Y-9514049D02*
X14079985Y-9504525D01*
X14079985Y-9504525D02*
X14108557Y-9504525D01*
X14108557Y-9504525D02*
X14127605Y-9514049D01*
X14127605Y-9514049D02*
X14137128Y-9523573D01*
X14137128Y-9523573D02*
X14146652Y-9542621D01*
X14146652Y-9542621D02*
X14146652Y-9599764D01*
X14146652Y-9599764D02*
X14137128Y-9618811D01*
X14137128Y-9618811D02*
X14127605Y-9628335D01*
X14127605Y-9628335D02*
X14108557Y-9637859D01*
X14108557Y-9637859D02*
X14079985Y-9637859D01*
X14260938Y-9637859D02*
X14241890Y-9628335D01*
X14241890Y-9628335D02*
X14232366Y-9609287D01*
X14232366Y-9609287D02*
X14232366Y-9437859D01*
X14413319Y-9628335D02*
X14394271Y-9637859D01*
X14394271Y-9637859D02*
X14356176Y-9637859D01*
X14356176Y-9637859D02*
X14337128Y-9628335D01*
X14337128Y-9628335D02*
X14327605Y-9609287D01*
X14327605Y-9609287D02*
X14327605Y-9533097D01*
X14327605Y-9533097D02*
X14337128Y-9514049D01*
X14337128Y-9514049D02*
X14356176Y-9504525D01*
X14356176Y-9504525D02*
X14394271Y-9504525D01*
X14394271Y-9504525D02*
X14413319Y-9514049D01*
X14413319Y-9514049D02*
X14422843Y-9533097D01*
X14422843Y-9533097D02*
X14422843Y-9552145D01*
X14422843Y-9552145D02*
X14327605Y-9571192D01*
X14499033Y-9628335D02*
X14518081Y-9637859D01*
X14518081Y-9637859D02*
X14556176Y-9637859D01*
X14556176Y-9637859D02*
X14575224Y-9628335D01*
X14575224Y-9628335D02*
X14584747Y-9609287D01*
X14584747Y-9609287D02*
X14584747Y-9599764D01*
X14584747Y-9599764D02*
X14575224Y-9580716D01*
X14575224Y-9580716D02*
X14556176Y-9571192D01*
X14556176Y-9571192D02*
X14527605Y-9571192D01*
X14527605Y-9571192D02*
X14508557Y-9561668D01*
X14508557Y-9561668D02*
X14499033Y-9542621D01*
X14499033Y-9542621D02*
X14499033Y-9533097D01*
X14499033Y-9533097D02*
X14508557Y-9514049D01*
X14508557Y-9514049D02*
X14527605Y-9504525D01*
X14527605Y-9504525D02*
X14556176Y-9504525D01*
X14556176Y-9504525D02*
X14575224Y-9514049D01*
X14651414Y-9714049D02*
X14660938Y-9704525D01*
X14660938Y-9704525D02*
X14679986Y-9675954D01*
X14679986Y-9675954D02*
X14689509Y-9656906D01*
X14689509Y-9656906D02*
X14699033Y-9628335D01*
X14699033Y-9628335D02*
X14708557Y-9580716D01*
X14708557Y-9580716D02*
X14708557Y-9542621D01*
X14708557Y-9542621D02*
X14699033Y-9495002D01*
X14699033Y-9495002D02*
X14689509Y-9466430D01*
X14689509Y-9466430D02*
X14679986Y-9447383D01*
X14679986Y-9447383D02*
X14660938Y-9418811D01*
X14660938Y-9418811D02*
X14651414Y-9409287D01*
D12*
X9635875Y-9760375D02*
X9635875Y-9860375D01*
X9585875Y-9810375D02*
X9685875Y-9810375D01*
D11*
X10051414Y-9901859D02*
X9937128Y-9901859D01*
X9994271Y-9901859D02*
X9994271Y-9701859D01*
X9994271Y-9701859D02*
X9975223Y-9730430D01*
X9975223Y-9730430D02*
X9956176Y-9749478D01*
X9956176Y-9749478D02*
X9937128Y-9759002D01*
X10137128Y-9882811D02*
X10146652Y-9892335D01*
X10146652Y-9892335D02*
X10137128Y-9901859D01*
X10137128Y-9901859D02*
X10127604Y-9892335D01*
X10127604Y-9892335D02*
X10137128Y-9882811D01*
X10137128Y-9882811D02*
X10137128Y-9901859D01*
X10270461Y-9701859D02*
X10289509Y-9701859D01*
X10289509Y-9701859D02*
X10308557Y-9711383D01*
X10308557Y-9711383D02*
X10318080Y-9720906D01*
X10318080Y-9720906D02*
X10327604Y-9739954D01*
X10327604Y-9739954D02*
X10337128Y-9778049D01*
X10337128Y-9778049D02*
X10337128Y-9825668D01*
X10337128Y-9825668D02*
X10327604Y-9863764D01*
X10327604Y-9863764D02*
X10318080Y-9882811D01*
X10318080Y-9882811D02*
X10308557Y-9892335D01*
X10308557Y-9892335D02*
X10289509Y-9901859D01*
X10289509Y-9901859D02*
X10270461Y-9901859D01*
X10270461Y-9901859D02*
X10251414Y-9892335D01*
X10251414Y-9892335D02*
X10241890Y-9882811D01*
X10241890Y-9882811D02*
X10232366Y-9863764D01*
X10232366Y-9863764D02*
X10222842Y-9825668D01*
X10222842Y-9825668D02*
X10222842Y-9778049D01*
X10222842Y-9778049D02*
X10232366Y-9739954D01*
X10232366Y-9739954D02*
X10241890Y-9720906D01*
X10241890Y-9720906D02*
X10251414Y-9711383D01*
X10251414Y-9711383D02*
X10270461Y-9701859D01*
X10460938Y-9701859D02*
X10479985Y-9701859D01*
X10479985Y-9701859D02*
X10499033Y-9711383D01*
X10499033Y-9711383D02*
X10508557Y-9720906D01*
X10508557Y-9720906D02*
X10518080Y-9739954D01*
X10518080Y-9739954D02*
X10527604Y-9778049D01*
X10527604Y-9778049D02*
X10527604Y-9825668D01*
X10527604Y-9825668D02*
X10518080Y-9863764D01*
X10518080Y-9863764D02*
X10508557Y-9882811D01*
X10508557Y-9882811D02*
X10499033Y-9892335D01*
X10499033Y-9892335D02*
X10479985Y-9901859D01*
X10479985Y-9901859D02*
X10460938Y-9901859D01*
X10460938Y-9901859D02*
X10441890Y-9892335D01*
X10441890Y-9892335D02*
X10432366Y-9882811D01*
X10432366Y-9882811D02*
X10422842Y-9863764D01*
X10422842Y-9863764D02*
X10413319Y-9825668D01*
X10413319Y-9825668D02*
X10413319Y-9778049D01*
X10413319Y-9778049D02*
X10422842Y-9739954D01*
X10422842Y-9739954D02*
X10432366Y-9720906D01*
X10432366Y-9720906D02*
X10441890Y-9711383D01*
X10441890Y-9711383D02*
X10460938Y-9701859D01*
X10651414Y-9701859D02*
X10670461Y-9701859D01*
X10670461Y-9701859D02*
X10689509Y-9711383D01*
X10689509Y-9711383D02*
X10699033Y-9720906D01*
X10699033Y-9720906D02*
X10708557Y-9739954D01*
X10708557Y-9739954D02*
X10718080Y-9778049D01*
X10718080Y-9778049D02*
X10718080Y-9825668D01*
X10718080Y-9825668D02*
X10708557Y-9863764D01*
X10708557Y-9863764D02*
X10699033Y-9882811D01*
X10699033Y-9882811D02*
X10689509Y-9892335D01*
X10689509Y-9892335D02*
X10670461Y-9901859D01*
X10670461Y-9901859D02*
X10651414Y-9901859D01*
X10651414Y-9901859D02*
X10632366Y-9892335D01*
X10632366Y-9892335D02*
X10622842Y-9882811D01*
X10622842Y-9882811D02*
X10613319Y-9863764D01*
X10613319Y-9863764D02*
X10603795Y-9825668D01*
X10603795Y-9825668D02*
X10603795Y-9778049D01*
X10603795Y-9778049D02*
X10613319Y-9739954D01*
X10613319Y-9739954D02*
X10622842Y-9720906D01*
X10622842Y-9720906D02*
X10632366Y-9711383D01*
X10632366Y-9711383D02*
X10651414Y-9701859D01*
X10803795Y-9901859D02*
X10803795Y-9768525D01*
X10803795Y-9787573D02*
X10813319Y-9778049D01*
X10813319Y-9778049D02*
X10832366Y-9768525D01*
X10832366Y-9768525D02*
X10860938Y-9768525D01*
X10860938Y-9768525D02*
X10879985Y-9778049D01*
X10879985Y-9778049D02*
X10889509Y-9797097D01*
X10889509Y-9797097D02*
X10889509Y-9901859D01*
X10889509Y-9797097D02*
X10899033Y-9778049D01*
X10899033Y-9778049D02*
X10918080Y-9768525D01*
X10918080Y-9768525D02*
X10946652Y-9768525D01*
X10946652Y-9768525D02*
X10965700Y-9778049D01*
X10965700Y-9778049D02*
X10975223Y-9797097D01*
X10975223Y-9797097D02*
X10975223Y-9901859D01*
X11070461Y-9901859D02*
X11070461Y-9768525D01*
X11070461Y-9787573D02*
X11079985Y-9778049D01*
X11079985Y-9778049D02*
X11099033Y-9768525D01*
X11099033Y-9768525D02*
X11127604Y-9768525D01*
X11127604Y-9768525D02*
X11146652Y-9778049D01*
X11146652Y-9778049D02*
X11156176Y-9797097D01*
X11156176Y-9797097D02*
X11156176Y-9901859D01*
X11156176Y-9797097D02*
X11165700Y-9778049D01*
X11165700Y-9778049D02*
X11184747Y-9768525D01*
X11184747Y-9768525D02*
X11213318Y-9768525D01*
X11213318Y-9768525D02*
X11232366Y-9778049D01*
X11232366Y-9778049D02*
X11241890Y-9797097D01*
X11241890Y-9797097D02*
X11241890Y-9901859D01*
X11632366Y-9692335D02*
X11460938Y-9949478D01*
X11889509Y-9701859D02*
X11908557Y-9701859D01*
X11908557Y-9701859D02*
X11927604Y-9711383D01*
X11927604Y-9711383D02*
X11937128Y-9720906D01*
X11937128Y-9720906D02*
X11946652Y-9739954D01*
X11946652Y-9739954D02*
X11956176Y-9778049D01*
X11956176Y-9778049D02*
X11956176Y-9825668D01*
X11956176Y-9825668D02*
X11946652Y-9863764D01*
X11946652Y-9863764D02*
X11937128Y-9882811D01*
X11937128Y-9882811D02*
X11927604Y-9892335D01*
X11927604Y-9892335D02*
X11908557Y-9901859D01*
X11908557Y-9901859D02*
X11889509Y-9901859D01*
X11889509Y-9901859D02*
X11870461Y-9892335D01*
X11870461Y-9892335D02*
X11860938Y-9882811D01*
X11860938Y-9882811D02*
X11851414Y-9863764D01*
X11851414Y-9863764D02*
X11841890Y-9825668D01*
X11841890Y-9825668D02*
X11841890Y-9778049D01*
X11841890Y-9778049D02*
X11851414Y-9739954D01*
X11851414Y-9739954D02*
X11860938Y-9720906D01*
X11860938Y-9720906D02*
X11870461Y-9711383D01*
X11870461Y-9711383D02*
X11889509Y-9701859D01*
X12041890Y-9882811D02*
X12051414Y-9892335D01*
X12051414Y-9892335D02*
X12041890Y-9901859D01*
X12041890Y-9901859D02*
X12032366Y-9892335D01*
X12032366Y-9892335D02*
X12041890Y-9882811D01*
X12041890Y-9882811D02*
X12041890Y-9901859D01*
X12175223Y-9701859D02*
X12194271Y-9701859D01*
X12194271Y-9701859D02*
X12213319Y-9711383D01*
X12213319Y-9711383D02*
X12222842Y-9720906D01*
X12222842Y-9720906D02*
X12232366Y-9739954D01*
X12232366Y-9739954D02*
X12241890Y-9778049D01*
X12241890Y-9778049D02*
X12241890Y-9825668D01*
X12241890Y-9825668D02*
X12232366Y-9863764D01*
X12232366Y-9863764D02*
X12222842Y-9882811D01*
X12222842Y-9882811D02*
X12213319Y-9892335D01*
X12213319Y-9892335D02*
X12194271Y-9901859D01*
X12194271Y-9901859D02*
X12175223Y-9901859D01*
X12175223Y-9901859D02*
X12156176Y-9892335D01*
X12156176Y-9892335D02*
X12146652Y-9882811D01*
X12146652Y-9882811D02*
X12137128Y-9863764D01*
X12137128Y-9863764D02*
X12127604Y-9825668D01*
X12127604Y-9825668D02*
X12127604Y-9778049D01*
X12127604Y-9778049D02*
X12137128Y-9739954D01*
X12137128Y-9739954D02*
X12146652Y-9720906D01*
X12146652Y-9720906D02*
X12156176Y-9711383D01*
X12156176Y-9711383D02*
X12175223Y-9701859D01*
X12308557Y-9701859D02*
X12432366Y-9701859D01*
X12432366Y-9701859D02*
X12365700Y-9778049D01*
X12365700Y-9778049D02*
X12394271Y-9778049D01*
X12394271Y-9778049D02*
X12413319Y-9787573D01*
X12413319Y-9787573D02*
X12422842Y-9797097D01*
X12422842Y-9797097D02*
X12432366Y-9816145D01*
X12432366Y-9816145D02*
X12432366Y-9863764D01*
X12432366Y-9863764D02*
X12422842Y-9882811D01*
X12422842Y-9882811D02*
X12413319Y-9892335D01*
X12413319Y-9892335D02*
X12394271Y-9901859D01*
X12394271Y-9901859D02*
X12337128Y-9901859D01*
X12337128Y-9901859D02*
X12318081Y-9892335D01*
X12318081Y-9892335D02*
X12308557Y-9882811D01*
X12527604Y-9901859D02*
X12565700Y-9901859D01*
X12565700Y-9901859D02*
X12584747Y-9892335D01*
X12584747Y-9892335D02*
X12594271Y-9882811D01*
X12594271Y-9882811D02*
X12613319Y-9854240D01*
X12613319Y-9854240D02*
X12622842Y-9816145D01*
X12622842Y-9816145D02*
X12622842Y-9739954D01*
X12622842Y-9739954D02*
X12613319Y-9720906D01*
X12613319Y-9720906D02*
X12603795Y-9711383D01*
X12603795Y-9711383D02*
X12584747Y-9701859D01*
X12584747Y-9701859D02*
X12546652Y-9701859D01*
X12546652Y-9701859D02*
X12527604Y-9711383D01*
X12527604Y-9711383D02*
X12518081Y-9720906D01*
X12518081Y-9720906D02*
X12508557Y-9739954D01*
X12508557Y-9739954D02*
X12508557Y-9787573D01*
X12508557Y-9787573D02*
X12518081Y-9806621D01*
X12518081Y-9806621D02*
X12527604Y-9816145D01*
X12527604Y-9816145D02*
X12546652Y-9825668D01*
X12546652Y-9825668D02*
X12584747Y-9825668D01*
X12584747Y-9825668D02*
X12603795Y-9816145D01*
X12603795Y-9816145D02*
X12613319Y-9806621D01*
X12613319Y-9806621D02*
X12622842Y-9787573D01*
X12794271Y-9768525D02*
X12794271Y-9901859D01*
X12746652Y-9692335D02*
X12699033Y-9835192D01*
X12699033Y-9835192D02*
X12822842Y-9835192D01*
X12889509Y-9701859D02*
X12889509Y-9739954D01*
X12965700Y-9701859D02*
X12965700Y-9739954D01*
X13260938Y-9978049D02*
X13251414Y-9968525D01*
X13251414Y-9968525D02*
X13232366Y-9939954D01*
X13232366Y-9939954D02*
X13222843Y-9920906D01*
X13222843Y-9920906D02*
X13213319Y-9892335D01*
X13213319Y-9892335D02*
X13203795Y-9844716D01*
X13203795Y-9844716D02*
X13203795Y-9806621D01*
X13203795Y-9806621D02*
X13213319Y-9759002D01*
X13213319Y-9759002D02*
X13222843Y-9730430D01*
X13222843Y-9730430D02*
X13232366Y-9711383D01*
X13232366Y-9711383D02*
X13251414Y-9682811D01*
X13251414Y-9682811D02*
X13260938Y-9673287D01*
X13346652Y-9901859D02*
X13384747Y-9901859D01*
X13384747Y-9901859D02*
X13403795Y-9892335D01*
X13403795Y-9892335D02*
X13413319Y-9882811D01*
X13413319Y-9882811D02*
X13432366Y-9854240D01*
X13432366Y-9854240D02*
X13441890Y-9816145D01*
X13441890Y-9816145D02*
X13441890Y-9739954D01*
X13441890Y-9739954D02*
X13432366Y-9720906D01*
X13432366Y-9720906D02*
X13422843Y-9711383D01*
X13422843Y-9711383D02*
X13403795Y-9701859D01*
X13403795Y-9701859D02*
X13365700Y-9701859D01*
X13365700Y-9701859D02*
X13346652Y-9711383D01*
X13346652Y-9711383D02*
X13337128Y-9720906D01*
X13337128Y-9720906D02*
X13327604Y-9739954D01*
X13327604Y-9739954D02*
X13327604Y-9787573D01*
X13327604Y-9787573D02*
X13337128Y-9806621D01*
X13337128Y-9806621D02*
X13346652Y-9816145D01*
X13346652Y-9816145D02*
X13365700Y-9825668D01*
X13365700Y-9825668D02*
X13403795Y-9825668D01*
X13403795Y-9825668D02*
X13422843Y-9816145D01*
X13422843Y-9816145D02*
X13432366Y-9806621D01*
X13432366Y-9806621D02*
X13441890Y-9787573D01*
X13679985Y-9901859D02*
X13679985Y-9701859D01*
X13765700Y-9901859D02*
X13765700Y-9797097D01*
X13765700Y-9797097D02*
X13756176Y-9778049D01*
X13756176Y-9778049D02*
X13737128Y-9768525D01*
X13737128Y-9768525D02*
X13708557Y-9768525D01*
X13708557Y-9768525D02*
X13689509Y-9778049D01*
X13689509Y-9778049D02*
X13679985Y-9787573D01*
X13889509Y-9901859D02*
X13870462Y-9892335D01*
X13870462Y-9892335D02*
X13860938Y-9882811D01*
X13860938Y-9882811D02*
X13851414Y-9863764D01*
X13851414Y-9863764D02*
X13851414Y-9806621D01*
X13851414Y-9806621D02*
X13860938Y-9787573D01*
X13860938Y-9787573D02*
X13870462Y-9778049D01*
X13870462Y-9778049D02*
X13889509Y-9768525D01*
X13889509Y-9768525D02*
X13918081Y-9768525D01*
X13918081Y-9768525D02*
X13937128Y-9778049D01*
X13937128Y-9778049D02*
X13946652Y-9787573D01*
X13946652Y-9787573D02*
X13956176Y-9806621D01*
X13956176Y-9806621D02*
X13956176Y-9863764D01*
X13956176Y-9863764D02*
X13946652Y-9882811D01*
X13946652Y-9882811D02*
X13937128Y-9892335D01*
X13937128Y-9892335D02*
X13918081Y-9901859D01*
X13918081Y-9901859D02*
X13889509Y-9901859D01*
X14070462Y-9901859D02*
X14051414Y-9892335D01*
X14051414Y-9892335D02*
X14041890Y-9873287D01*
X14041890Y-9873287D02*
X14041890Y-9701859D01*
X14222843Y-9892335D02*
X14203795Y-9901859D01*
X14203795Y-9901859D02*
X14165700Y-9901859D01*
X14165700Y-9901859D02*
X14146652Y-9892335D01*
X14146652Y-9892335D02*
X14137128Y-9873287D01*
X14137128Y-9873287D02*
X14137128Y-9797097D01*
X14137128Y-9797097D02*
X14146652Y-9778049D01*
X14146652Y-9778049D02*
X14165700Y-9768525D01*
X14165700Y-9768525D02*
X14203795Y-9768525D01*
X14203795Y-9768525D02*
X14222843Y-9778049D01*
X14222843Y-9778049D02*
X14232366Y-9797097D01*
X14232366Y-9797097D02*
X14232366Y-9816145D01*
X14232366Y-9816145D02*
X14137128Y-9835192D01*
X14308557Y-9892335D02*
X14327605Y-9901859D01*
X14327605Y-9901859D02*
X14365700Y-9901859D01*
X14365700Y-9901859D02*
X14384747Y-9892335D01*
X14384747Y-9892335D02*
X14394271Y-9873287D01*
X14394271Y-9873287D02*
X14394271Y-9863764D01*
X14394271Y-9863764D02*
X14384747Y-9844716D01*
X14384747Y-9844716D02*
X14365700Y-9835192D01*
X14365700Y-9835192D02*
X14337128Y-9835192D01*
X14337128Y-9835192D02*
X14318081Y-9825668D01*
X14318081Y-9825668D02*
X14308557Y-9806621D01*
X14308557Y-9806621D02*
X14308557Y-9797097D01*
X14308557Y-9797097D02*
X14318081Y-9778049D01*
X14318081Y-9778049D02*
X14337128Y-9768525D01*
X14337128Y-9768525D02*
X14365700Y-9768525D01*
X14365700Y-9768525D02*
X14384747Y-9778049D01*
X14460938Y-9978049D02*
X14470462Y-9968525D01*
X14470462Y-9968525D02*
X14489509Y-9939954D01*
X14489509Y-9939954D02*
X14499033Y-9920906D01*
X14499033Y-9920906D02*
X14508557Y-9892335D01*
X14508557Y-9892335D02*
X14518081Y-9844716D01*
X14518081Y-9844716D02*
X14518081Y-9806621D01*
X14518081Y-9806621D02*
X14508557Y-9759002D01*
X14508557Y-9759002D02*
X14499033Y-9730430D01*
X14499033Y-9730430D02*
X14489509Y-9711383D01*
X14489509Y-9711383D02*
X14470462Y-9682811D01*
X14470462Y-9682811D02*
X14460938Y-9673287D01*
D13*
X9663909Y-10127409D02*
X9663909Y-10021342D01*
X9557842Y-10021342D01*
X9557842Y-10127409D01*
X9663909Y-10127409D01*
D11*
X10051414Y-10165859D02*
X9937128Y-10165859D01*
X9994271Y-10165859D02*
X9994271Y-9965859D01*
X9994271Y-9965859D02*
X9975223Y-9994430D01*
X9975223Y-9994430D02*
X9956176Y-10013478D01*
X9956176Y-10013478D02*
X9937128Y-10023002D01*
X10137128Y-10146811D02*
X10146652Y-10156335D01*
X10146652Y-10156335D02*
X10137128Y-10165859D01*
X10137128Y-10165859D02*
X10127604Y-10156335D01*
X10127604Y-10156335D02*
X10137128Y-10146811D01*
X10137128Y-10146811D02*
X10137128Y-10165859D01*
X10327604Y-9965859D02*
X10232366Y-9965859D01*
X10232366Y-9965859D02*
X10222842Y-10061097D01*
X10222842Y-10061097D02*
X10232366Y-10051573D01*
X10232366Y-10051573D02*
X10251414Y-10042049D01*
X10251414Y-10042049D02*
X10299033Y-10042049D01*
X10299033Y-10042049D02*
X10318080Y-10051573D01*
X10318080Y-10051573D02*
X10327604Y-10061097D01*
X10327604Y-10061097D02*
X10337128Y-10080145D01*
X10337128Y-10080145D02*
X10337128Y-10127764D01*
X10337128Y-10127764D02*
X10327604Y-10146811D01*
X10327604Y-10146811D02*
X10318080Y-10156335D01*
X10318080Y-10156335D02*
X10299033Y-10165859D01*
X10299033Y-10165859D02*
X10251414Y-10165859D01*
X10251414Y-10165859D02*
X10232366Y-10156335D01*
X10232366Y-10156335D02*
X10222842Y-10146811D01*
X10460938Y-9965859D02*
X10479985Y-9965859D01*
X10479985Y-9965859D02*
X10499033Y-9975383D01*
X10499033Y-9975383D02*
X10508557Y-9984906D01*
X10508557Y-9984906D02*
X10518080Y-10003954D01*
X10518080Y-10003954D02*
X10527604Y-10042049D01*
X10527604Y-10042049D02*
X10527604Y-10089668D01*
X10527604Y-10089668D02*
X10518080Y-10127764D01*
X10518080Y-10127764D02*
X10508557Y-10146811D01*
X10508557Y-10146811D02*
X10499033Y-10156335D01*
X10499033Y-10156335D02*
X10479985Y-10165859D01*
X10479985Y-10165859D02*
X10460938Y-10165859D01*
X10460938Y-10165859D02*
X10441890Y-10156335D01*
X10441890Y-10156335D02*
X10432366Y-10146811D01*
X10432366Y-10146811D02*
X10422842Y-10127764D01*
X10422842Y-10127764D02*
X10413319Y-10089668D01*
X10413319Y-10089668D02*
X10413319Y-10042049D01*
X10413319Y-10042049D02*
X10422842Y-10003954D01*
X10422842Y-10003954D02*
X10432366Y-9984906D01*
X10432366Y-9984906D02*
X10441890Y-9975383D01*
X10441890Y-9975383D02*
X10460938Y-9965859D01*
X10651414Y-9965859D02*
X10670461Y-9965859D01*
X10670461Y-9965859D02*
X10689509Y-9975383D01*
X10689509Y-9975383D02*
X10699033Y-9984906D01*
X10699033Y-9984906D02*
X10708557Y-10003954D01*
X10708557Y-10003954D02*
X10718080Y-10042049D01*
X10718080Y-10042049D02*
X10718080Y-10089668D01*
X10718080Y-10089668D02*
X10708557Y-10127764D01*
X10708557Y-10127764D02*
X10699033Y-10146811D01*
X10699033Y-10146811D02*
X10689509Y-10156335D01*
X10689509Y-10156335D02*
X10670461Y-10165859D01*
X10670461Y-10165859D02*
X10651414Y-10165859D01*
X10651414Y-10165859D02*
X10632366Y-10156335D01*
X10632366Y-10156335D02*
X10622842Y-10146811D01*
X10622842Y-10146811D02*
X10613319Y-10127764D01*
X10613319Y-10127764D02*
X10603795Y-10089668D01*
X10603795Y-10089668D02*
X10603795Y-10042049D01*
X10603795Y-10042049D02*
X10613319Y-10003954D01*
X10613319Y-10003954D02*
X10622842Y-9984906D01*
X10622842Y-9984906D02*
X10632366Y-9975383D01*
X10632366Y-9975383D02*
X10651414Y-9965859D01*
X10803795Y-10165859D02*
X10803795Y-10032525D01*
X10803795Y-10051573D02*
X10813319Y-10042049D01*
X10813319Y-10042049D02*
X10832366Y-10032525D01*
X10832366Y-10032525D02*
X10860938Y-10032525D01*
X10860938Y-10032525D02*
X10879985Y-10042049D01*
X10879985Y-10042049D02*
X10889509Y-10061097D01*
X10889509Y-10061097D02*
X10889509Y-10165859D01*
X10889509Y-10061097D02*
X10899033Y-10042049D01*
X10899033Y-10042049D02*
X10918080Y-10032525D01*
X10918080Y-10032525D02*
X10946652Y-10032525D01*
X10946652Y-10032525D02*
X10965700Y-10042049D01*
X10965700Y-10042049D02*
X10975223Y-10061097D01*
X10975223Y-10061097D02*
X10975223Y-10165859D01*
X11070461Y-10165859D02*
X11070461Y-10032525D01*
X11070461Y-10051573D02*
X11079985Y-10042049D01*
X11079985Y-10042049D02*
X11099033Y-10032525D01*
X11099033Y-10032525D02*
X11127604Y-10032525D01*
X11127604Y-10032525D02*
X11146652Y-10042049D01*
X11146652Y-10042049D02*
X11156176Y-10061097D01*
X11156176Y-10061097D02*
X11156176Y-10165859D01*
X11156176Y-10061097D02*
X11165700Y-10042049D01*
X11165700Y-10042049D02*
X11184747Y-10032525D01*
X11184747Y-10032525D02*
X11213318Y-10032525D01*
X11213318Y-10032525D02*
X11232366Y-10042049D01*
X11232366Y-10042049D02*
X11241890Y-10061097D01*
X11241890Y-10061097D02*
X11241890Y-10165859D01*
X11632366Y-9956335D02*
X11460938Y-10213478D01*
X11889509Y-9965859D02*
X11908557Y-9965859D01*
X11908557Y-9965859D02*
X11927604Y-9975383D01*
X11927604Y-9975383D02*
X11937128Y-9984906D01*
X11937128Y-9984906D02*
X11946652Y-10003954D01*
X11946652Y-10003954D02*
X11956176Y-10042049D01*
X11956176Y-10042049D02*
X11956176Y-10089668D01*
X11956176Y-10089668D02*
X11946652Y-10127764D01*
X11946652Y-10127764D02*
X11937128Y-10146811D01*
X11937128Y-10146811D02*
X11927604Y-10156335D01*
X11927604Y-10156335D02*
X11908557Y-10165859D01*
X11908557Y-10165859D02*
X11889509Y-10165859D01*
X11889509Y-10165859D02*
X11870461Y-10156335D01*
X11870461Y-10156335D02*
X11860938Y-10146811D01*
X11860938Y-10146811D02*
X11851414Y-10127764D01*
X11851414Y-10127764D02*
X11841890Y-10089668D01*
X11841890Y-10089668D02*
X11841890Y-10042049D01*
X11841890Y-10042049D02*
X11851414Y-10003954D01*
X11851414Y-10003954D02*
X11860938Y-9984906D01*
X11860938Y-9984906D02*
X11870461Y-9975383D01*
X11870461Y-9975383D02*
X11889509Y-9965859D01*
X12041890Y-10146811D02*
X12051414Y-10156335D01*
X12051414Y-10156335D02*
X12041890Y-10165859D01*
X12041890Y-10165859D02*
X12032366Y-10156335D01*
X12032366Y-10156335D02*
X12041890Y-10146811D01*
X12041890Y-10146811D02*
X12041890Y-10165859D01*
X12175223Y-9965859D02*
X12194271Y-9965859D01*
X12194271Y-9965859D02*
X12213319Y-9975383D01*
X12213319Y-9975383D02*
X12222842Y-9984906D01*
X12222842Y-9984906D02*
X12232366Y-10003954D01*
X12232366Y-10003954D02*
X12241890Y-10042049D01*
X12241890Y-10042049D02*
X12241890Y-10089668D01*
X12241890Y-10089668D02*
X12232366Y-10127764D01*
X12232366Y-10127764D02*
X12222842Y-10146811D01*
X12222842Y-10146811D02*
X12213319Y-10156335D01*
X12213319Y-10156335D02*
X12194271Y-10165859D01*
X12194271Y-10165859D02*
X12175223Y-10165859D01*
X12175223Y-10165859D02*
X12156176Y-10156335D01*
X12156176Y-10156335D02*
X12146652Y-10146811D01*
X12146652Y-10146811D02*
X12137128Y-10127764D01*
X12137128Y-10127764D02*
X12127604Y-10089668D01*
X12127604Y-10089668D02*
X12127604Y-10042049D01*
X12127604Y-10042049D02*
X12137128Y-10003954D01*
X12137128Y-10003954D02*
X12146652Y-9984906D01*
X12146652Y-9984906D02*
X12156176Y-9975383D01*
X12156176Y-9975383D02*
X12175223Y-9965859D01*
X12422842Y-9965859D02*
X12327604Y-9965859D01*
X12327604Y-9965859D02*
X12318081Y-10061097D01*
X12318081Y-10061097D02*
X12327604Y-10051573D01*
X12327604Y-10051573D02*
X12346652Y-10042049D01*
X12346652Y-10042049D02*
X12394271Y-10042049D01*
X12394271Y-10042049D02*
X12413319Y-10051573D01*
X12413319Y-10051573D02*
X12422842Y-10061097D01*
X12422842Y-10061097D02*
X12432366Y-10080145D01*
X12432366Y-10080145D02*
X12432366Y-10127764D01*
X12432366Y-10127764D02*
X12422842Y-10146811D01*
X12422842Y-10146811D02*
X12413319Y-10156335D01*
X12413319Y-10156335D02*
X12394271Y-10165859D01*
X12394271Y-10165859D02*
X12346652Y-10165859D01*
X12346652Y-10165859D02*
X12327604Y-10156335D01*
X12327604Y-10156335D02*
X12318081Y-10146811D01*
X12527604Y-10165859D02*
X12565700Y-10165859D01*
X12565700Y-10165859D02*
X12584747Y-10156335D01*
X12584747Y-10156335D02*
X12594271Y-10146811D01*
X12594271Y-10146811D02*
X12613319Y-10118240D01*
X12613319Y-10118240D02*
X12622842Y-10080145D01*
X12622842Y-10080145D02*
X12622842Y-10003954D01*
X12622842Y-10003954D02*
X12613319Y-9984906D01*
X12613319Y-9984906D02*
X12603795Y-9975383D01*
X12603795Y-9975383D02*
X12584747Y-9965859D01*
X12584747Y-9965859D02*
X12546652Y-9965859D01*
X12546652Y-9965859D02*
X12527604Y-9975383D01*
X12527604Y-9975383D02*
X12518081Y-9984906D01*
X12518081Y-9984906D02*
X12508557Y-10003954D01*
X12508557Y-10003954D02*
X12508557Y-10051573D01*
X12508557Y-10051573D02*
X12518081Y-10070621D01*
X12518081Y-10070621D02*
X12527604Y-10080145D01*
X12527604Y-10080145D02*
X12546652Y-10089668D01*
X12546652Y-10089668D02*
X12584747Y-10089668D01*
X12584747Y-10089668D02*
X12603795Y-10080145D01*
X12603795Y-10080145D02*
X12613319Y-10070621D01*
X12613319Y-10070621D02*
X12622842Y-10051573D01*
X12813319Y-10165859D02*
X12699033Y-10165859D01*
X12756176Y-10165859D02*
X12756176Y-9965859D01*
X12756176Y-9965859D02*
X12737128Y-9994430D01*
X12737128Y-9994430D02*
X12718081Y-10013478D01*
X12718081Y-10013478D02*
X12699033Y-10023002D01*
X12889509Y-9965859D02*
X12889509Y-10003954D01*
X12965700Y-9965859D02*
X12965700Y-10003954D01*
X13260938Y-10242049D02*
X13251414Y-10232525D01*
X13251414Y-10232525D02*
X13232366Y-10203954D01*
X13232366Y-10203954D02*
X13222843Y-10184906D01*
X13222843Y-10184906D02*
X13213319Y-10156335D01*
X13213319Y-10156335D02*
X13203795Y-10108716D01*
X13203795Y-10108716D02*
X13203795Y-10070621D01*
X13203795Y-10070621D02*
X13213319Y-10023002D01*
X13213319Y-10023002D02*
X13222843Y-9994430D01*
X13222843Y-9994430D02*
X13232366Y-9975383D01*
X13232366Y-9975383D02*
X13251414Y-9946811D01*
X13251414Y-9946811D02*
X13260938Y-9937287D01*
X13441890Y-10165859D02*
X13327604Y-10165859D01*
X13384747Y-10165859D02*
X13384747Y-9965859D01*
X13384747Y-9965859D02*
X13365700Y-9994430D01*
X13365700Y-9994430D02*
X13346652Y-10013478D01*
X13346652Y-10013478D02*
X13327604Y-10023002D01*
X13518081Y-9984906D02*
X13527604Y-9975383D01*
X13527604Y-9975383D02*
X13546652Y-9965859D01*
X13546652Y-9965859D02*
X13594271Y-9965859D01*
X13594271Y-9965859D02*
X13613319Y-9975383D01*
X13613319Y-9975383D02*
X13622843Y-9984906D01*
X13622843Y-9984906D02*
X13632366Y-10003954D01*
X13632366Y-10003954D02*
X13632366Y-10023002D01*
X13632366Y-10023002D02*
X13622843Y-10051573D01*
X13622843Y-10051573D02*
X13508557Y-10165859D01*
X13508557Y-10165859D02*
X13632366Y-10165859D01*
X13870462Y-10165859D02*
X13870462Y-9965859D01*
X13956176Y-10165859D02*
X13956176Y-10061097D01*
X13956176Y-10061097D02*
X13946652Y-10042049D01*
X13946652Y-10042049D02*
X13927605Y-10032525D01*
X13927605Y-10032525D02*
X13899033Y-10032525D01*
X13899033Y-10032525D02*
X13879985Y-10042049D01*
X13879985Y-10042049D02*
X13870462Y-10051573D01*
X14079985Y-10165859D02*
X14060938Y-10156335D01*
X14060938Y-10156335D02*
X14051414Y-10146811D01*
X14051414Y-10146811D02*
X14041890Y-10127764D01*
X14041890Y-10127764D02*
X14041890Y-10070621D01*
X14041890Y-10070621D02*
X14051414Y-10051573D01*
X14051414Y-10051573D02*
X14060938Y-10042049D01*
X14060938Y-10042049D02*
X14079985Y-10032525D01*
X14079985Y-10032525D02*
X14108557Y-10032525D01*
X14108557Y-10032525D02*
X14127605Y-10042049D01*
X14127605Y-10042049D02*
X14137128Y-10051573D01*
X14137128Y-10051573D02*
X14146652Y-10070621D01*
X14146652Y-10070621D02*
X14146652Y-10127764D01*
X14146652Y-10127764D02*
X14137128Y-10146811D01*
X14137128Y-10146811D02*
X14127605Y-10156335D01*
X14127605Y-10156335D02*
X14108557Y-10165859D01*
X14108557Y-10165859D02*
X14079985Y-10165859D01*
X14260938Y-10165859D02*
X14241890Y-10156335D01*
X14241890Y-10156335D02*
X14232366Y-10137287D01*
X14232366Y-10137287D02*
X14232366Y-9965859D01*
X14413319Y-10156335D02*
X14394271Y-10165859D01*
X14394271Y-10165859D02*
X14356176Y-10165859D01*
X14356176Y-10165859D02*
X14337128Y-10156335D01*
X14337128Y-10156335D02*
X14327605Y-10137287D01*
X14327605Y-10137287D02*
X14327605Y-10061097D01*
X14327605Y-10061097D02*
X14337128Y-10042049D01*
X14337128Y-10042049D02*
X14356176Y-10032525D01*
X14356176Y-10032525D02*
X14394271Y-10032525D01*
X14394271Y-10032525D02*
X14413319Y-10042049D01*
X14413319Y-10042049D02*
X14422843Y-10061097D01*
X14422843Y-10061097D02*
X14422843Y-10080145D01*
X14422843Y-10080145D02*
X14327605Y-10099192D01*
X14499033Y-10156335D02*
X14518081Y-10165859D01*
X14518081Y-10165859D02*
X14556176Y-10165859D01*
X14556176Y-10165859D02*
X14575224Y-10156335D01*
X14575224Y-10156335D02*
X14584747Y-10137287D01*
X14584747Y-10137287D02*
X14584747Y-10127764D01*
X14584747Y-10127764D02*
X14575224Y-10108716D01*
X14575224Y-10108716D02*
X14556176Y-10099192D01*
X14556176Y-10099192D02*
X14527605Y-10099192D01*
X14527605Y-10099192D02*
X14508557Y-10089668D01*
X14508557Y-10089668D02*
X14499033Y-10070621D01*
X14499033Y-10070621D02*
X14499033Y-10061097D01*
X14499033Y-10061097D02*
X14508557Y-10042049D01*
X14508557Y-10042049D02*
X14527605Y-10032525D01*
X14527605Y-10032525D02*
X14556176Y-10032525D01*
X14556176Y-10032525D02*
X14575224Y-10042049D01*
X14822843Y-10089668D02*
X14975224Y-10089668D01*
X14899033Y-10165859D02*
X14899033Y-10013478D01*
X15213319Y-9984906D02*
X15222843Y-9975383D01*
X15222843Y-9975383D02*
X15241890Y-9965859D01*
X15241890Y-9965859D02*
X15289509Y-9965859D01*
X15289509Y-9965859D02*
X15308557Y-9975383D01*
X15308557Y-9975383D02*
X15318081Y-9984906D01*
X15318081Y-9984906D02*
X15327605Y-10003954D01*
X15327605Y-10003954D02*
X15327605Y-10023002D01*
X15327605Y-10023002D02*
X15318081Y-10051573D01*
X15318081Y-10051573D02*
X15203795Y-10165859D01*
X15203795Y-10165859D02*
X15327605Y-10165859D01*
X15556176Y-10156335D02*
X15575224Y-10165859D01*
X15575224Y-10165859D02*
X15613319Y-10165859D01*
X15613319Y-10165859D02*
X15632367Y-10156335D01*
X15632367Y-10156335D02*
X15641890Y-10137287D01*
X15641890Y-10137287D02*
X15641890Y-10127764D01*
X15641890Y-10127764D02*
X15632367Y-10108716D01*
X15632367Y-10108716D02*
X15613319Y-10099192D01*
X15613319Y-10099192D02*
X15584748Y-10099192D01*
X15584748Y-10099192D02*
X15565700Y-10089668D01*
X15565700Y-10089668D02*
X15556176Y-10070621D01*
X15556176Y-10070621D02*
X15556176Y-10061097D01*
X15556176Y-10061097D02*
X15565700Y-10042049D01*
X15565700Y-10042049D02*
X15584748Y-10032525D01*
X15584748Y-10032525D02*
X15613319Y-10032525D01*
X15613319Y-10032525D02*
X15632367Y-10042049D01*
X15756176Y-10165859D02*
X15737129Y-10156335D01*
X15737129Y-10156335D02*
X15727605Y-10137287D01*
X15727605Y-10137287D02*
X15727605Y-9965859D01*
X15860938Y-10165859D02*
X15841890Y-10156335D01*
X15841890Y-10156335D02*
X15832367Y-10146811D01*
X15832367Y-10146811D02*
X15822843Y-10127764D01*
X15822843Y-10127764D02*
X15822843Y-10070621D01*
X15822843Y-10070621D02*
X15832367Y-10051573D01*
X15832367Y-10051573D02*
X15841890Y-10042049D01*
X15841890Y-10042049D02*
X15860938Y-10032525D01*
X15860938Y-10032525D02*
X15889510Y-10032525D01*
X15889510Y-10032525D02*
X15908557Y-10042049D01*
X15908557Y-10042049D02*
X15918081Y-10051573D01*
X15918081Y-10051573D02*
X15927605Y-10070621D01*
X15927605Y-10070621D02*
X15927605Y-10127764D01*
X15927605Y-10127764D02*
X15918081Y-10146811D01*
X15918081Y-10146811D02*
X15908557Y-10156335D01*
X15908557Y-10156335D02*
X15889510Y-10165859D01*
X15889510Y-10165859D02*
X15860938Y-10165859D01*
X15984748Y-10032525D02*
X16060938Y-10032525D01*
X16013319Y-9965859D02*
X16013319Y-10137287D01*
X16013319Y-10137287D02*
X16022843Y-10156335D01*
X16022843Y-10156335D02*
X16041890Y-10165859D01*
X16041890Y-10165859D02*
X16060938Y-10165859D01*
X16118081Y-10156335D02*
X16137129Y-10165859D01*
X16137129Y-10165859D02*
X16175224Y-10165859D01*
X16175224Y-10165859D02*
X16194271Y-10156335D01*
X16194271Y-10156335D02*
X16203795Y-10137287D01*
X16203795Y-10137287D02*
X16203795Y-10127764D01*
X16203795Y-10127764D02*
X16194271Y-10108716D01*
X16194271Y-10108716D02*
X16175224Y-10099192D01*
X16175224Y-10099192D02*
X16146652Y-10099192D01*
X16146652Y-10099192D02*
X16127605Y-10089668D01*
X16127605Y-10089668D02*
X16118081Y-10070621D01*
X16118081Y-10070621D02*
X16118081Y-10061097D01*
X16118081Y-10061097D02*
X16127605Y-10042049D01*
X16127605Y-10042049D02*
X16146652Y-10032525D01*
X16146652Y-10032525D02*
X16175224Y-10032525D01*
X16175224Y-10032525D02*
X16194271Y-10042049D01*
X16270462Y-10242049D02*
X16279986Y-10232525D01*
X16279986Y-10232525D02*
X16299033Y-10203954D01*
X16299033Y-10203954D02*
X16308557Y-10184906D01*
X16308557Y-10184906D02*
X16318081Y-10156335D01*
X16318081Y-10156335D02*
X16327605Y-10108716D01*
X16327605Y-10108716D02*
X16327605Y-10070621D01*
X16327605Y-10070621D02*
X16318081Y-10023002D01*
X16318081Y-10023002D02*
X16308557Y-9994430D01*
X16308557Y-9994430D02*
X16299033Y-9975383D01*
X16299033Y-9975383D02*
X16279986Y-9946811D01*
X16279986Y-9946811D02*
X16270462Y-9937287D01*
M02*
