%TF.GenerationSoftware,KiCad,Pcbnew,9.0.6*%
%TF.CreationDate,2025-12-08T21:16:02+04:00*%
%TF.ProjectId,L3MON hackpad,4c334d4f-4e20-4686-9163-6b7061642e6b,rev?*%
%TF.SameCoordinates,Original*%
%TF.FileFunction,Drillmap*%
%TF.FilePolarity,Positive*%
%FSLAX45Y45*%
G04 Gerber Fmt 4.5, Leading zero omitted, Abs format (unit mm)*
G04 Created by KiCad (PCBNEW 9.0.6) date 2025-12-08 21:16:02*
%MOMM*%
%LPD*%
G01*
G04 APERTURE LIST*
%ADD10C,0.050000*%
%ADD11C,0.200000*%
%ADD12C,0.170000*%
%ADD13C,0.400000*%
G04 APERTURE END LIST*
D10*
X9688375Y-3228000D02*
X17737625Y-3228000D01*
X17737625Y-8639875D01*
X9688375Y-8639875D01*
X9688375Y-3228000D01*
D11*
D12*
X10122625Y-5630000D02*
X10292625Y-5800000D01*
X10292625Y-5630000D02*
X10122625Y-5800000D01*
X10360750Y-7535000D02*
X10530750Y-7705000D01*
X10530750Y-7535000D02*
X10360750Y-7705000D01*
X11138625Y-5630000D02*
X11308625Y-5800000D01*
X11308625Y-5630000D02*
X11138625Y-5800000D01*
X11376750Y-7535000D02*
X11546750Y-7705000D01*
X11546750Y-7535000D02*
X11376750Y-7705000D01*
X12265750Y-7535000D02*
X12435750Y-7705000D01*
X12435750Y-7535000D02*
X12265750Y-7705000D01*
X13281750Y-7535000D02*
X13451750Y-7705000D01*
X13451750Y-7535000D02*
X13281750Y-7705000D01*
X14170750Y-7535000D02*
X14340750Y-7705000D01*
X14340750Y-7535000D02*
X14170750Y-7705000D01*
X15186750Y-7535000D02*
X15356750Y-7705000D01*
X15356750Y-7535000D02*
X15186750Y-7705000D01*
X16075750Y-5630000D02*
X16245750Y-5800000D01*
X16245750Y-5630000D02*
X16075750Y-5800000D01*
X16075750Y-7535000D02*
X16245750Y-7705000D01*
X16245750Y-7535000D02*
X16075750Y-7705000D01*
X17091750Y-5630000D02*
X17261750Y-5800000D01*
X17261750Y-5630000D02*
X17091750Y-5800000D01*
X17091750Y-7535000D02*
X17261750Y-7705000D01*
X17261750Y-7535000D02*
X17091750Y-7705000D01*
D13*
X10915625Y-5715000D02*
G75*
G02*
X10515625Y-5715000I-200000J0D01*
G01*
X10515625Y-5715000D02*
G75*
G02*
X10915625Y-5715000I200000J0D01*
G01*
X11153750Y-7620000D02*
G75*
G02*
X10753750Y-7620000I-200000J0D01*
G01*
X10753750Y-7620000D02*
G75*
G02*
X11153750Y-7620000I200000J0D01*
G01*
X13058750Y-7620000D02*
G75*
G02*
X12658750Y-7620000I-200000J0D01*
G01*
X12658750Y-7620000D02*
G75*
G02*
X13058750Y-7620000I200000J0D01*
G01*
X14963750Y-7620000D02*
G75*
G02*
X14563750Y-7620000I-200000J0D01*
G01*
X14563750Y-7620000D02*
G75*
G02*
X14963750Y-7620000I200000J0D01*
G01*
X16868750Y-5715000D02*
G75*
G02*
X16468750Y-5715000I-200000J0D01*
G01*
X16468750Y-5715000D02*
G75*
G02*
X16868750Y-5715000I200000J0D01*
G01*
X16868750Y-7620000D02*
G75*
G02*
X16468750Y-7620000I-200000J0D01*
G01*
X16468750Y-7620000D02*
G75*
G02*
X16868750Y-7620000I200000J0D01*
G01*
D11*
X9946652Y-8953859D02*
X9946652Y-8753859D01*
X9946652Y-8753859D02*
X9994271Y-8753859D01*
X9994271Y-8753859D02*
X10022842Y-8763383D01*
X10022842Y-8763383D02*
X10041890Y-8782430D01*
X10041890Y-8782430D02*
X10051414Y-8801478D01*
X10051414Y-8801478D02*
X10060938Y-8839573D01*
X10060938Y-8839573D02*
X10060938Y-8868145D01*
X10060938Y-8868145D02*
X10051414Y-8906240D01*
X10051414Y-8906240D02*
X10041890Y-8925287D01*
X10041890Y-8925287D02*
X10022842Y-8944335D01*
X10022842Y-8944335D02*
X9994271Y-8953859D01*
X9994271Y-8953859D02*
X9946652Y-8953859D01*
X10146652Y-8953859D02*
X10146652Y-8820525D01*
X10146652Y-8858621D02*
X10156176Y-8839573D01*
X10156176Y-8839573D02*
X10165699Y-8830049D01*
X10165699Y-8830049D02*
X10184747Y-8820525D01*
X10184747Y-8820525D02*
X10203795Y-8820525D01*
X10270461Y-8953859D02*
X10270461Y-8820525D01*
X10270461Y-8753859D02*
X10260938Y-8763383D01*
X10260938Y-8763383D02*
X10270461Y-8772906D01*
X10270461Y-8772906D02*
X10279985Y-8763383D01*
X10279985Y-8763383D02*
X10270461Y-8753859D01*
X10270461Y-8753859D02*
X10270461Y-8772906D01*
X10394271Y-8953859D02*
X10375223Y-8944335D01*
X10375223Y-8944335D02*
X10365699Y-8925287D01*
X10365699Y-8925287D02*
X10365699Y-8753859D01*
X10499033Y-8953859D02*
X10479985Y-8944335D01*
X10479985Y-8944335D02*
X10470461Y-8925287D01*
X10470461Y-8925287D02*
X10470461Y-8753859D01*
X10727604Y-8953859D02*
X10727604Y-8753859D01*
X10727604Y-8753859D02*
X10794271Y-8896716D01*
X10794271Y-8896716D02*
X10860938Y-8753859D01*
X10860938Y-8753859D02*
X10860938Y-8953859D01*
X11041890Y-8953859D02*
X11041890Y-8849097D01*
X11041890Y-8849097D02*
X11032366Y-8830049D01*
X11032366Y-8830049D02*
X11013319Y-8820525D01*
X11013319Y-8820525D02*
X10975223Y-8820525D01*
X10975223Y-8820525D02*
X10956176Y-8830049D01*
X11041890Y-8944335D02*
X11022842Y-8953859D01*
X11022842Y-8953859D02*
X10975223Y-8953859D01*
X10975223Y-8953859D02*
X10956176Y-8944335D01*
X10956176Y-8944335D02*
X10946652Y-8925287D01*
X10946652Y-8925287D02*
X10946652Y-8906240D01*
X10946652Y-8906240D02*
X10956176Y-8887192D01*
X10956176Y-8887192D02*
X10975223Y-8877668D01*
X10975223Y-8877668D02*
X11022842Y-8877668D01*
X11022842Y-8877668D02*
X11041890Y-8868145D01*
X11137128Y-8820525D02*
X11137128Y-9020525D01*
X11137128Y-8830049D02*
X11156176Y-8820525D01*
X11156176Y-8820525D02*
X11194271Y-8820525D01*
X11194271Y-8820525D02*
X11213318Y-8830049D01*
X11213318Y-8830049D02*
X11222842Y-8839573D01*
X11222842Y-8839573D02*
X11232366Y-8858621D01*
X11232366Y-8858621D02*
X11232366Y-8915764D01*
X11232366Y-8915764D02*
X11222842Y-8934811D01*
X11222842Y-8934811D02*
X11213318Y-8944335D01*
X11213318Y-8944335D02*
X11194271Y-8953859D01*
X11194271Y-8953859D02*
X11156176Y-8953859D01*
X11156176Y-8953859D02*
X11137128Y-8944335D01*
X11318080Y-8934811D02*
X11327604Y-8944335D01*
X11327604Y-8944335D02*
X11318080Y-8953859D01*
X11318080Y-8953859D02*
X11308557Y-8944335D01*
X11308557Y-8944335D02*
X11318080Y-8934811D01*
X11318080Y-8934811D02*
X11318080Y-8953859D01*
X11318080Y-8830049D02*
X11327604Y-8839573D01*
X11327604Y-8839573D02*
X11318080Y-8849097D01*
X11318080Y-8849097D02*
X11308557Y-8839573D01*
X11308557Y-8839573D02*
X11318080Y-8830049D01*
X11318080Y-8830049D02*
X11318080Y-8849097D01*
D12*
X9515875Y-9197375D02*
X9685875Y-9367375D01*
X9685875Y-9197375D02*
X9515875Y-9367375D01*
D11*
X10051414Y-9373859D02*
X9937128Y-9373859D01*
X9994271Y-9373859D02*
X9994271Y-9173859D01*
X9994271Y-9173859D02*
X9975223Y-9202430D01*
X9975223Y-9202430D02*
X9956176Y-9221478D01*
X9956176Y-9221478D02*
X9937128Y-9231002D01*
X10137128Y-9354811D02*
X10146652Y-9364335D01*
X10146652Y-9364335D02*
X10137128Y-9373859D01*
X10137128Y-9373859D02*
X10127604Y-9364335D01*
X10127604Y-9364335D02*
X10137128Y-9354811D01*
X10137128Y-9354811D02*
X10137128Y-9373859D01*
X10213319Y-9173859D02*
X10346652Y-9173859D01*
X10346652Y-9173859D02*
X10260938Y-9373859D01*
X10460938Y-9173859D02*
X10479985Y-9173859D01*
X10479985Y-9173859D02*
X10499033Y-9183383D01*
X10499033Y-9183383D02*
X10508557Y-9192906D01*
X10508557Y-9192906D02*
X10518080Y-9211954D01*
X10518080Y-9211954D02*
X10527604Y-9250049D01*
X10527604Y-9250049D02*
X10527604Y-9297668D01*
X10527604Y-9297668D02*
X10518080Y-9335764D01*
X10518080Y-9335764D02*
X10508557Y-9354811D01*
X10508557Y-9354811D02*
X10499033Y-9364335D01*
X10499033Y-9364335D02*
X10479985Y-9373859D01*
X10479985Y-9373859D02*
X10460938Y-9373859D01*
X10460938Y-9373859D02*
X10441890Y-9364335D01*
X10441890Y-9364335D02*
X10432366Y-9354811D01*
X10432366Y-9354811D02*
X10422842Y-9335764D01*
X10422842Y-9335764D02*
X10413319Y-9297668D01*
X10413319Y-9297668D02*
X10413319Y-9250049D01*
X10413319Y-9250049D02*
X10422842Y-9211954D01*
X10422842Y-9211954D02*
X10432366Y-9192906D01*
X10432366Y-9192906D02*
X10441890Y-9183383D01*
X10441890Y-9183383D02*
X10460938Y-9173859D01*
X10651414Y-9173859D02*
X10670461Y-9173859D01*
X10670461Y-9173859D02*
X10689509Y-9183383D01*
X10689509Y-9183383D02*
X10699033Y-9192906D01*
X10699033Y-9192906D02*
X10708557Y-9211954D01*
X10708557Y-9211954D02*
X10718080Y-9250049D01*
X10718080Y-9250049D02*
X10718080Y-9297668D01*
X10718080Y-9297668D02*
X10708557Y-9335764D01*
X10708557Y-9335764D02*
X10699033Y-9354811D01*
X10699033Y-9354811D02*
X10689509Y-9364335D01*
X10689509Y-9364335D02*
X10670461Y-9373859D01*
X10670461Y-9373859D02*
X10651414Y-9373859D01*
X10651414Y-9373859D02*
X10632366Y-9364335D01*
X10632366Y-9364335D02*
X10622842Y-9354811D01*
X10622842Y-9354811D02*
X10613319Y-9335764D01*
X10613319Y-9335764D02*
X10603795Y-9297668D01*
X10603795Y-9297668D02*
X10603795Y-9250049D01*
X10603795Y-9250049D02*
X10613319Y-9211954D01*
X10613319Y-9211954D02*
X10622842Y-9192906D01*
X10622842Y-9192906D02*
X10632366Y-9183383D01*
X10632366Y-9183383D02*
X10651414Y-9173859D01*
X10803795Y-9373859D02*
X10803795Y-9240525D01*
X10803795Y-9259573D02*
X10813319Y-9250049D01*
X10813319Y-9250049D02*
X10832366Y-9240525D01*
X10832366Y-9240525D02*
X10860938Y-9240525D01*
X10860938Y-9240525D02*
X10879985Y-9250049D01*
X10879985Y-9250049D02*
X10889509Y-9269097D01*
X10889509Y-9269097D02*
X10889509Y-9373859D01*
X10889509Y-9269097D02*
X10899033Y-9250049D01*
X10899033Y-9250049D02*
X10918080Y-9240525D01*
X10918080Y-9240525D02*
X10946652Y-9240525D01*
X10946652Y-9240525D02*
X10965700Y-9250049D01*
X10965700Y-9250049D02*
X10975223Y-9269097D01*
X10975223Y-9269097D02*
X10975223Y-9373859D01*
X11070461Y-9373859D02*
X11070461Y-9240525D01*
X11070461Y-9259573D02*
X11079985Y-9250049D01*
X11079985Y-9250049D02*
X11099033Y-9240525D01*
X11099033Y-9240525D02*
X11127604Y-9240525D01*
X11127604Y-9240525D02*
X11146652Y-9250049D01*
X11146652Y-9250049D02*
X11156176Y-9269097D01*
X11156176Y-9269097D02*
X11156176Y-9373859D01*
X11156176Y-9269097D02*
X11165700Y-9250049D01*
X11165700Y-9250049D02*
X11184747Y-9240525D01*
X11184747Y-9240525D02*
X11213318Y-9240525D01*
X11213318Y-9240525D02*
X11232366Y-9250049D01*
X11232366Y-9250049D02*
X11241890Y-9269097D01*
X11241890Y-9269097D02*
X11241890Y-9373859D01*
X11632366Y-9164335D02*
X11460938Y-9421478D01*
X11889509Y-9173859D02*
X11908557Y-9173859D01*
X11908557Y-9173859D02*
X11927604Y-9183383D01*
X11927604Y-9183383D02*
X11937128Y-9192906D01*
X11937128Y-9192906D02*
X11946652Y-9211954D01*
X11946652Y-9211954D02*
X11956176Y-9250049D01*
X11956176Y-9250049D02*
X11956176Y-9297668D01*
X11956176Y-9297668D02*
X11946652Y-9335764D01*
X11946652Y-9335764D02*
X11937128Y-9354811D01*
X11937128Y-9354811D02*
X11927604Y-9364335D01*
X11927604Y-9364335D02*
X11908557Y-9373859D01*
X11908557Y-9373859D02*
X11889509Y-9373859D01*
X11889509Y-9373859D02*
X11870461Y-9364335D01*
X11870461Y-9364335D02*
X11860938Y-9354811D01*
X11860938Y-9354811D02*
X11851414Y-9335764D01*
X11851414Y-9335764D02*
X11841890Y-9297668D01*
X11841890Y-9297668D02*
X11841890Y-9250049D01*
X11841890Y-9250049D02*
X11851414Y-9211954D01*
X11851414Y-9211954D02*
X11860938Y-9192906D01*
X11860938Y-9192906D02*
X11870461Y-9183383D01*
X11870461Y-9183383D02*
X11889509Y-9173859D01*
X12041890Y-9354811D02*
X12051414Y-9364335D01*
X12051414Y-9364335D02*
X12041890Y-9373859D01*
X12041890Y-9373859D02*
X12032366Y-9364335D01*
X12032366Y-9364335D02*
X12041890Y-9354811D01*
X12041890Y-9354811D02*
X12041890Y-9373859D01*
X12175223Y-9173859D02*
X12194271Y-9173859D01*
X12194271Y-9173859D02*
X12213319Y-9183383D01*
X12213319Y-9183383D02*
X12222842Y-9192906D01*
X12222842Y-9192906D02*
X12232366Y-9211954D01*
X12232366Y-9211954D02*
X12241890Y-9250049D01*
X12241890Y-9250049D02*
X12241890Y-9297668D01*
X12241890Y-9297668D02*
X12232366Y-9335764D01*
X12232366Y-9335764D02*
X12222842Y-9354811D01*
X12222842Y-9354811D02*
X12213319Y-9364335D01*
X12213319Y-9364335D02*
X12194271Y-9373859D01*
X12194271Y-9373859D02*
X12175223Y-9373859D01*
X12175223Y-9373859D02*
X12156176Y-9364335D01*
X12156176Y-9364335D02*
X12146652Y-9354811D01*
X12146652Y-9354811D02*
X12137128Y-9335764D01*
X12137128Y-9335764D02*
X12127604Y-9297668D01*
X12127604Y-9297668D02*
X12127604Y-9250049D01*
X12127604Y-9250049D02*
X12137128Y-9211954D01*
X12137128Y-9211954D02*
X12146652Y-9192906D01*
X12146652Y-9192906D02*
X12156176Y-9183383D01*
X12156176Y-9183383D02*
X12175223Y-9173859D01*
X12413319Y-9173859D02*
X12375223Y-9173859D01*
X12375223Y-9173859D02*
X12356176Y-9183383D01*
X12356176Y-9183383D02*
X12346652Y-9192906D01*
X12346652Y-9192906D02*
X12327604Y-9221478D01*
X12327604Y-9221478D02*
X12318081Y-9259573D01*
X12318081Y-9259573D02*
X12318081Y-9335764D01*
X12318081Y-9335764D02*
X12327604Y-9354811D01*
X12327604Y-9354811D02*
X12337128Y-9364335D01*
X12337128Y-9364335D02*
X12356176Y-9373859D01*
X12356176Y-9373859D02*
X12394271Y-9373859D01*
X12394271Y-9373859D02*
X12413319Y-9364335D01*
X12413319Y-9364335D02*
X12422842Y-9354811D01*
X12422842Y-9354811D02*
X12432366Y-9335764D01*
X12432366Y-9335764D02*
X12432366Y-9288145D01*
X12432366Y-9288145D02*
X12422842Y-9269097D01*
X12422842Y-9269097D02*
X12413319Y-9259573D01*
X12413319Y-9259573D02*
X12394271Y-9250049D01*
X12394271Y-9250049D02*
X12356176Y-9250049D01*
X12356176Y-9250049D02*
X12337128Y-9259573D01*
X12337128Y-9259573D02*
X12327604Y-9269097D01*
X12327604Y-9269097D02*
X12318081Y-9288145D01*
X12603795Y-9173859D02*
X12565700Y-9173859D01*
X12565700Y-9173859D02*
X12546652Y-9183383D01*
X12546652Y-9183383D02*
X12537128Y-9192906D01*
X12537128Y-9192906D02*
X12518081Y-9221478D01*
X12518081Y-9221478D02*
X12508557Y-9259573D01*
X12508557Y-9259573D02*
X12508557Y-9335764D01*
X12508557Y-9335764D02*
X12518081Y-9354811D01*
X12518081Y-9354811D02*
X12527604Y-9364335D01*
X12527604Y-9364335D02*
X12546652Y-9373859D01*
X12546652Y-9373859D02*
X12584747Y-9373859D01*
X12584747Y-9373859D02*
X12603795Y-9364335D01*
X12603795Y-9364335D02*
X12613319Y-9354811D01*
X12613319Y-9354811D02*
X12622842Y-9335764D01*
X12622842Y-9335764D02*
X12622842Y-9288145D01*
X12622842Y-9288145D02*
X12613319Y-9269097D01*
X12613319Y-9269097D02*
X12603795Y-9259573D01*
X12603795Y-9259573D02*
X12584747Y-9250049D01*
X12584747Y-9250049D02*
X12546652Y-9250049D01*
X12546652Y-9250049D02*
X12527604Y-9259573D01*
X12527604Y-9259573D02*
X12518081Y-9269097D01*
X12518081Y-9269097D02*
X12508557Y-9288145D01*
X12718081Y-9373859D02*
X12756176Y-9373859D01*
X12756176Y-9373859D02*
X12775223Y-9364335D01*
X12775223Y-9364335D02*
X12784747Y-9354811D01*
X12784747Y-9354811D02*
X12803795Y-9326240D01*
X12803795Y-9326240D02*
X12813319Y-9288145D01*
X12813319Y-9288145D02*
X12813319Y-9211954D01*
X12813319Y-9211954D02*
X12803795Y-9192906D01*
X12803795Y-9192906D02*
X12794271Y-9183383D01*
X12794271Y-9183383D02*
X12775223Y-9173859D01*
X12775223Y-9173859D02*
X12737128Y-9173859D01*
X12737128Y-9173859D02*
X12718081Y-9183383D01*
X12718081Y-9183383D02*
X12708557Y-9192906D01*
X12708557Y-9192906D02*
X12699033Y-9211954D01*
X12699033Y-9211954D02*
X12699033Y-9259573D01*
X12699033Y-9259573D02*
X12708557Y-9278621D01*
X12708557Y-9278621D02*
X12718081Y-9288145D01*
X12718081Y-9288145D02*
X12737128Y-9297668D01*
X12737128Y-9297668D02*
X12775223Y-9297668D01*
X12775223Y-9297668D02*
X12794271Y-9288145D01*
X12794271Y-9288145D02*
X12803795Y-9278621D01*
X12803795Y-9278621D02*
X12813319Y-9259573D01*
X12889509Y-9173859D02*
X12889509Y-9211954D01*
X12965700Y-9173859D02*
X12965700Y-9211954D01*
X13260938Y-9450049D02*
X13251414Y-9440525D01*
X13251414Y-9440525D02*
X13232366Y-9411954D01*
X13232366Y-9411954D02*
X13222843Y-9392906D01*
X13222843Y-9392906D02*
X13213319Y-9364335D01*
X13213319Y-9364335D02*
X13203795Y-9316716D01*
X13203795Y-9316716D02*
X13203795Y-9278621D01*
X13203795Y-9278621D02*
X13213319Y-9231002D01*
X13213319Y-9231002D02*
X13222843Y-9202430D01*
X13222843Y-9202430D02*
X13232366Y-9183383D01*
X13232366Y-9183383D02*
X13251414Y-9154811D01*
X13251414Y-9154811D02*
X13260938Y-9145287D01*
X13441890Y-9373859D02*
X13327604Y-9373859D01*
X13384747Y-9373859D02*
X13384747Y-9173859D01*
X13384747Y-9173859D02*
X13365700Y-9202430D01*
X13365700Y-9202430D02*
X13346652Y-9221478D01*
X13346652Y-9221478D02*
X13327604Y-9231002D01*
X13518081Y-9192906D02*
X13527604Y-9183383D01*
X13527604Y-9183383D02*
X13546652Y-9173859D01*
X13546652Y-9173859D02*
X13594271Y-9173859D01*
X13594271Y-9173859D02*
X13613319Y-9183383D01*
X13613319Y-9183383D02*
X13622843Y-9192906D01*
X13622843Y-9192906D02*
X13632366Y-9211954D01*
X13632366Y-9211954D02*
X13632366Y-9231002D01*
X13632366Y-9231002D02*
X13622843Y-9259573D01*
X13622843Y-9259573D02*
X13508557Y-9373859D01*
X13508557Y-9373859D02*
X13632366Y-9373859D01*
X13870462Y-9373859D02*
X13870462Y-9173859D01*
X13956176Y-9373859D02*
X13956176Y-9269097D01*
X13956176Y-9269097D02*
X13946652Y-9250049D01*
X13946652Y-9250049D02*
X13927605Y-9240525D01*
X13927605Y-9240525D02*
X13899033Y-9240525D01*
X13899033Y-9240525D02*
X13879985Y-9250049D01*
X13879985Y-9250049D02*
X13870462Y-9259573D01*
X14079985Y-9373859D02*
X14060938Y-9364335D01*
X14060938Y-9364335D02*
X14051414Y-9354811D01*
X14051414Y-9354811D02*
X14041890Y-9335764D01*
X14041890Y-9335764D02*
X14041890Y-9278621D01*
X14041890Y-9278621D02*
X14051414Y-9259573D01*
X14051414Y-9259573D02*
X14060938Y-9250049D01*
X14060938Y-9250049D02*
X14079985Y-9240525D01*
X14079985Y-9240525D02*
X14108557Y-9240525D01*
X14108557Y-9240525D02*
X14127605Y-9250049D01*
X14127605Y-9250049D02*
X14137128Y-9259573D01*
X14137128Y-9259573D02*
X14146652Y-9278621D01*
X14146652Y-9278621D02*
X14146652Y-9335764D01*
X14146652Y-9335764D02*
X14137128Y-9354811D01*
X14137128Y-9354811D02*
X14127605Y-9364335D01*
X14127605Y-9364335D02*
X14108557Y-9373859D01*
X14108557Y-9373859D02*
X14079985Y-9373859D01*
X14260938Y-9373859D02*
X14241890Y-9364335D01*
X14241890Y-9364335D02*
X14232366Y-9345287D01*
X14232366Y-9345287D02*
X14232366Y-9173859D01*
X14413319Y-9364335D02*
X14394271Y-9373859D01*
X14394271Y-9373859D02*
X14356176Y-9373859D01*
X14356176Y-9373859D02*
X14337128Y-9364335D01*
X14337128Y-9364335D02*
X14327605Y-9345287D01*
X14327605Y-9345287D02*
X14327605Y-9269097D01*
X14327605Y-9269097D02*
X14337128Y-9250049D01*
X14337128Y-9250049D02*
X14356176Y-9240525D01*
X14356176Y-9240525D02*
X14394271Y-9240525D01*
X14394271Y-9240525D02*
X14413319Y-9250049D01*
X14413319Y-9250049D02*
X14422843Y-9269097D01*
X14422843Y-9269097D02*
X14422843Y-9288145D01*
X14422843Y-9288145D02*
X14327605Y-9307192D01*
X14499033Y-9364335D02*
X14518081Y-9373859D01*
X14518081Y-9373859D02*
X14556176Y-9373859D01*
X14556176Y-9373859D02*
X14575224Y-9364335D01*
X14575224Y-9364335D02*
X14584747Y-9345287D01*
X14584747Y-9345287D02*
X14584747Y-9335764D01*
X14584747Y-9335764D02*
X14575224Y-9316716D01*
X14575224Y-9316716D02*
X14556176Y-9307192D01*
X14556176Y-9307192D02*
X14527605Y-9307192D01*
X14527605Y-9307192D02*
X14508557Y-9297668D01*
X14508557Y-9297668D02*
X14499033Y-9278621D01*
X14499033Y-9278621D02*
X14499033Y-9269097D01*
X14499033Y-9269097D02*
X14508557Y-9250049D01*
X14508557Y-9250049D02*
X14527605Y-9240525D01*
X14527605Y-9240525D02*
X14556176Y-9240525D01*
X14556176Y-9240525D02*
X14575224Y-9250049D01*
X14651414Y-9450049D02*
X14660938Y-9440525D01*
X14660938Y-9440525D02*
X14679986Y-9411954D01*
X14679986Y-9411954D02*
X14689509Y-9392906D01*
X14689509Y-9392906D02*
X14699033Y-9364335D01*
X14699033Y-9364335D02*
X14708557Y-9316716D01*
X14708557Y-9316716D02*
X14708557Y-9278621D01*
X14708557Y-9278621D02*
X14699033Y-9231002D01*
X14699033Y-9231002D02*
X14689509Y-9202430D01*
X14689509Y-9202430D02*
X14679986Y-9183383D01*
X14679986Y-9183383D02*
X14660938Y-9154811D01*
X14660938Y-9154811D02*
X14651414Y-9145287D01*
X15013319Y-9450049D02*
X15003795Y-9440525D01*
X15003795Y-9440525D02*
X14984747Y-9411954D01*
X14984747Y-9411954D02*
X14975224Y-9392906D01*
X14975224Y-9392906D02*
X14965700Y-9364335D01*
X14965700Y-9364335D02*
X14956176Y-9316716D01*
X14956176Y-9316716D02*
X14956176Y-9278621D01*
X14956176Y-9278621D02*
X14965700Y-9231002D01*
X14965700Y-9231002D02*
X14975224Y-9202430D01*
X14975224Y-9202430D02*
X14984747Y-9183383D01*
X14984747Y-9183383D02*
X15003795Y-9154811D01*
X15003795Y-9154811D02*
X15013319Y-9145287D01*
X15089509Y-9240525D02*
X15089509Y-9373859D01*
X15089509Y-9259573D02*
X15099033Y-9250049D01*
X15099033Y-9250049D02*
X15118081Y-9240525D01*
X15118081Y-9240525D02*
X15146652Y-9240525D01*
X15146652Y-9240525D02*
X15165700Y-9250049D01*
X15165700Y-9250049D02*
X15175224Y-9269097D01*
X15175224Y-9269097D02*
X15175224Y-9373859D01*
X15299033Y-9373859D02*
X15279986Y-9364335D01*
X15279986Y-9364335D02*
X15270462Y-9354811D01*
X15270462Y-9354811D02*
X15260938Y-9335764D01*
X15260938Y-9335764D02*
X15260938Y-9278621D01*
X15260938Y-9278621D02*
X15270462Y-9259573D01*
X15270462Y-9259573D02*
X15279986Y-9250049D01*
X15279986Y-9250049D02*
X15299033Y-9240525D01*
X15299033Y-9240525D02*
X15327605Y-9240525D01*
X15327605Y-9240525D02*
X15346652Y-9250049D01*
X15346652Y-9250049D02*
X15356176Y-9259573D01*
X15356176Y-9259573D02*
X15365700Y-9278621D01*
X15365700Y-9278621D02*
X15365700Y-9335764D01*
X15365700Y-9335764D02*
X15356176Y-9354811D01*
X15356176Y-9354811D02*
X15346652Y-9364335D01*
X15346652Y-9364335D02*
X15327605Y-9373859D01*
X15327605Y-9373859D02*
X15299033Y-9373859D01*
X15422843Y-9240525D02*
X15499033Y-9240525D01*
X15451414Y-9173859D02*
X15451414Y-9345287D01*
X15451414Y-9345287D02*
X15460938Y-9364335D01*
X15460938Y-9364335D02*
X15479986Y-9373859D01*
X15479986Y-9373859D02*
X15499033Y-9373859D01*
X15718081Y-9240525D02*
X15718081Y-9440525D01*
X15718081Y-9250049D02*
X15737128Y-9240525D01*
X15737128Y-9240525D02*
X15775224Y-9240525D01*
X15775224Y-9240525D02*
X15794271Y-9250049D01*
X15794271Y-9250049D02*
X15803795Y-9259573D01*
X15803795Y-9259573D02*
X15813319Y-9278621D01*
X15813319Y-9278621D02*
X15813319Y-9335764D01*
X15813319Y-9335764D02*
X15803795Y-9354811D01*
X15803795Y-9354811D02*
X15794271Y-9364335D01*
X15794271Y-9364335D02*
X15775224Y-9373859D01*
X15775224Y-9373859D02*
X15737128Y-9373859D01*
X15737128Y-9373859D02*
X15718081Y-9364335D01*
X15927605Y-9373859D02*
X15908557Y-9364335D01*
X15908557Y-9364335D02*
X15899033Y-9345287D01*
X15899033Y-9345287D02*
X15899033Y-9173859D01*
X16089509Y-9373859D02*
X16089509Y-9269097D01*
X16089509Y-9269097D02*
X16079986Y-9250049D01*
X16079986Y-9250049D02*
X16060938Y-9240525D01*
X16060938Y-9240525D02*
X16022843Y-9240525D01*
X16022843Y-9240525D02*
X16003795Y-9250049D01*
X16089509Y-9364335D02*
X16070462Y-9373859D01*
X16070462Y-9373859D02*
X16022843Y-9373859D01*
X16022843Y-9373859D02*
X16003795Y-9364335D01*
X16003795Y-9364335D02*
X15994271Y-9345287D01*
X15994271Y-9345287D02*
X15994271Y-9326240D01*
X15994271Y-9326240D02*
X16003795Y-9307192D01*
X16003795Y-9307192D02*
X16022843Y-9297668D01*
X16022843Y-9297668D02*
X16070462Y-9297668D01*
X16070462Y-9297668D02*
X16089509Y-9288145D01*
X16156176Y-9240525D02*
X16232367Y-9240525D01*
X16184748Y-9173859D02*
X16184748Y-9345287D01*
X16184748Y-9345287D02*
X16194271Y-9364335D01*
X16194271Y-9364335D02*
X16213319Y-9373859D01*
X16213319Y-9373859D02*
X16232367Y-9373859D01*
X16375224Y-9364335D02*
X16356176Y-9373859D01*
X16356176Y-9373859D02*
X16318081Y-9373859D01*
X16318081Y-9373859D02*
X16299033Y-9364335D01*
X16299033Y-9364335D02*
X16289509Y-9345287D01*
X16289509Y-9345287D02*
X16289509Y-9269097D01*
X16289509Y-9269097D02*
X16299033Y-9250049D01*
X16299033Y-9250049D02*
X16318081Y-9240525D01*
X16318081Y-9240525D02*
X16356176Y-9240525D01*
X16356176Y-9240525D02*
X16375224Y-9250049D01*
X16375224Y-9250049D02*
X16384748Y-9269097D01*
X16384748Y-9269097D02*
X16384748Y-9288145D01*
X16384748Y-9288145D02*
X16289509Y-9307192D01*
X16556176Y-9373859D02*
X16556176Y-9173859D01*
X16556176Y-9364335D02*
X16537129Y-9373859D01*
X16537129Y-9373859D02*
X16499033Y-9373859D01*
X16499033Y-9373859D02*
X16479986Y-9364335D01*
X16479986Y-9364335D02*
X16470462Y-9354811D01*
X16470462Y-9354811D02*
X16460938Y-9335764D01*
X16460938Y-9335764D02*
X16460938Y-9278621D01*
X16460938Y-9278621D02*
X16470462Y-9259573D01*
X16470462Y-9259573D02*
X16479986Y-9250049D01*
X16479986Y-9250049D02*
X16499033Y-9240525D01*
X16499033Y-9240525D02*
X16537129Y-9240525D01*
X16537129Y-9240525D02*
X16556176Y-9250049D01*
X16632367Y-9450049D02*
X16641890Y-9440525D01*
X16641890Y-9440525D02*
X16660938Y-9411954D01*
X16660938Y-9411954D02*
X16670462Y-9392906D01*
X16670462Y-9392906D02*
X16679986Y-9364335D01*
X16679986Y-9364335D02*
X16689509Y-9316716D01*
X16689509Y-9316716D02*
X16689509Y-9278621D01*
X16689509Y-9278621D02*
X16679986Y-9231002D01*
X16679986Y-9231002D02*
X16670462Y-9202430D01*
X16670462Y-9202430D02*
X16660938Y-9183383D01*
X16660938Y-9183383D02*
X16641890Y-9154811D01*
X16641890Y-9154811D02*
X16632367Y-9145287D01*
X9685875Y-9572375D02*
G75*
G02*
X9485875Y-9572375I-100000J0D01*
G01*
X9485875Y-9572375D02*
G75*
G02*
X9685875Y-9572375I100000J0D01*
G01*
X10032366Y-9530525D02*
X10032366Y-9663859D01*
X9984747Y-9454335D02*
X9937128Y-9597192D01*
X9937128Y-9597192D02*
X10060938Y-9597192D01*
X10137128Y-9644811D02*
X10146652Y-9654335D01*
X10146652Y-9654335D02*
X10137128Y-9663859D01*
X10137128Y-9663859D02*
X10127604Y-9654335D01*
X10127604Y-9654335D02*
X10137128Y-9644811D01*
X10137128Y-9644811D02*
X10137128Y-9663859D01*
X10270461Y-9463859D02*
X10289509Y-9463859D01*
X10289509Y-9463859D02*
X10308557Y-9473383D01*
X10308557Y-9473383D02*
X10318080Y-9482906D01*
X10318080Y-9482906D02*
X10327604Y-9501954D01*
X10327604Y-9501954D02*
X10337128Y-9540049D01*
X10337128Y-9540049D02*
X10337128Y-9587668D01*
X10337128Y-9587668D02*
X10327604Y-9625764D01*
X10327604Y-9625764D02*
X10318080Y-9644811D01*
X10318080Y-9644811D02*
X10308557Y-9654335D01*
X10308557Y-9654335D02*
X10289509Y-9663859D01*
X10289509Y-9663859D02*
X10270461Y-9663859D01*
X10270461Y-9663859D02*
X10251414Y-9654335D01*
X10251414Y-9654335D02*
X10241890Y-9644811D01*
X10241890Y-9644811D02*
X10232366Y-9625764D01*
X10232366Y-9625764D02*
X10222842Y-9587668D01*
X10222842Y-9587668D02*
X10222842Y-9540049D01*
X10222842Y-9540049D02*
X10232366Y-9501954D01*
X10232366Y-9501954D02*
X10241890Y-9482906D01*
X10241890Y-9482906D02*
X10251414Y-9473383D01*
X10251414Y-9473383D02*
X10270461Y-9463859D01*
X10460938Y-9463859D02*
X10479985Y-9463859D01*
X10479985Y-9463859D02*
X10499033Y-9473383D01*
X10499033Y-9473383D02*
X10508557Y-9482906D01*
X10508557Y-9482906D02*
X10518080Y-9501954D01*
X10518080Y-9501954D02*
X10527604Y-9540049D01*
X10527604Y-9540049D02*
X10527604Y-9587668D01*
X10527604Y-9587668D02*
X10518080Y-9625764D01*
X10518080Y-9625764D02*
X10508557Y-9644811D01*
X10508557Y-9644811D02*
X10499033Y-9654335D01*
X10499033Y-9654335D02*
X10479985Y-9663859D01*
X10479985Y-9663859D02*
X10460938Y-9663859D01*
X10460938Y-9663859D02*
X10441890Y-9654335D01*
X10441890Y-9654335D02*
X10432366Y-9644811D01*
X10432366Y-9644811D02*
X10422842Y-9625764D01*
X10422842Y-9625764D02*
X10413319Y-9587668D01*
X10413319Y-9587668D02*
X10413319Y-9540049D01*
X10413319Y-9540049D02*
X10422842Y-9501954D01*
X10422842Y-9501954D02*
X10432366Y-9482906D01*
X10432366Y-9482906D02*
X10441890Y-9473383D01*
X10441890Y-9473383D02*
X10460938Y-9463859D01*
X10651414Y-9463859D02*
X10670461Y-9463859D01*
X10670461Y-9463859D02*
X10689509Y-9473383D01*
X10689509Y-9473383D02*
X10699033Y-9482906D01*
X10699033Y-9482906D02*
X10708557Y-9501954D01*
X10708557Y-9501954D02*
X10718080Y-9540049D01*
X10718080Y-9540049D02*
X10718080Y-9587668D01*
X10718080Y-9587668D02*
X10708557Y-9625764D01*
X10708557Y-9625764D02*
X10699033Y-9644811D01*
X10699033Y-9644811D02*
X10689509Y-9654335D01*
X10689509Y-9654335D02*
X10670461Y-9663859D01*
X10670461Y-9663859D02*
X10651414Y-9663859D01*
X10651414Y-9663859D02*
X10632366Y-9654335D01*
X10632366Y-9654335D02*
X10622842Y-9644811D01*
X10622842Y-9644811D02*
X10613319Y-9625764D01*
X10613319Y-9625764D02*
X10603795Y-9587668D01*
X10603795Y-9587668D02*
X10603795Y-9540049D01*
X10603795Y-9540049D02*
X10613319Y-9501954D01*
X10613319Y-9501954D02*
X10622842Y-9482906D01*
X10622842Y-9482906D02*
X10632366Y-9473383D01*
X10632366Y-9473383D02*
X10651414Y-9463859D01*
X10803795Y-9663859D02*
X10803795Y-9530525D01*
X10803795Y-9549573D02*
X10813319Y-9540049D01*
X10813319Y-9540049D02*
X10832366Y-9530525D01*
X10832366Y-9530525D02*
X10860938Y-9530525D01*
X10860938Y-9530525D02*
X10879985Y-9540049D01*
X10879985Y-9540049D02*
X10889509Y-9559097D01*
X10889509Y-9559097D02*
X10889509Y-9663859D01*
X10889509Y-9559097D02*
X10899033Y-9540049D01*
X10899033Y-9540049D02*
X10918080Y-9530525D01*
X10918080Y-9530525D02*
X10946652Y-9530525D01*
X10946652Y-9530525D02*
X10965700Y-9540049D01*
X10965700Y-9540049D02*
X10975223Y-9559097D01*
X10975223Y-9559097D02*
X10975223Y-9663859D01*
X11070461Y-9663859D02*
X11070461Y-9530525D01*
X11070461Y-9549573D02*
X11079985Y-9540049D01*
X11079985Y-9540049D02*
X11099033Y-9530525D01*
X11099033Y-9530525D02*
X11127604Y-9530525D01*
X11127604Y-9530525D02*
X11146652Y-9540049D01*
X11146652Y-9540049D02*
X11156176Y-9559097D01*
X11156176Y-9559097D02*
X11156176Y-9663859D01*
X11156176Y-9559097D02*
X11165700Y-9540049D01*
X11165700Y-9540049D02*
X11184747Y-9530525D01*
X11184747Y-9530525D02*
X11213318Y-9530525D01*
X11213318Y-9530525D02*
X11232366Y-9540049D01*
X11232366Y-9540049D02*
X11241890Y-9559097D01*
X11241890Y-9559097D02*
X11241890Y-9663859D01*
X11632366Y-9454335D02*
X11460938Y-9711478D01*
X11889509Y-9463859D02*
X11908557Y-9463859D01*
X11908557Y-9463859D02*
X11927604Y-9473383D01*
X11927604Y-9473383D02*
X11937128Y-9482906D01*
X11937128Y-9482906D02*
X11946652Y-9501954D01*
X11946652Y-9501954D02*
X11956176Y-9540049D01*
X11956176Y-9540049D02*
X11956176Y-9587668D01*
X11956176Y-9587668D02*
X11946652Y-9625764D01*
X11946652Y-9625764D02*
X11937128Y-9644811D01*
X11937128Y-9644811D02*
X11927604Y-9654335D01*
X11927604Y-9654335D02*
X11908557Y-9663859D01*
X11908557Y-9663859D02*
X11889509Y-9663859D01*
X11889509Y-9663859D02*
X11870461Y-9654335D01*
X11870461Y-9654335D02*
X11860938Y-9644811D01*
X11860938Y-9644811D02*
X11851414Y-9625764D01*
X11851414Y-9625764D02*
X11841890Y-9587668D01*
X11841890Y-9587668D02*
X11841890Y-9540049D01*
X11841890Y-9540049D02*
X11851414Y-9501954D01*
X11851414Y-9501954D02*
X11860938Y-9482906D01*
X11860938Y-9482906D02*
X11870461Y-9473383D01*
X11870461Y-9473383D02*
X11889509Y-9463859D01*
X12041890Y-9644811D02*
X12051414Y-9654335D01*
X12051414Y-9654335D02*
X12041890Y-9663859D01*
X12041890Y-9663859D02*
X12032366Y-9654335D01*
X12032366Y-9654335D02*
X12041890Y-9644811D01*
X12041890Y-9644811D02*
X12041890Y-9663859D01*
X12241890Y-9663859D02*
X12127604Y-9663859D01*
X12184747Y-9663859D02*
X12184747Y-9463859D01*
X12184747Y-9463859D02*
X12165700Y-9492430D01*
X12165700Y-9492430D02*
X12146652Y-9511478D01*
X12146652Y-9511478D02*
X12127604Y-9521002D01*
X12422842Y-9463859D02*
X12327604Y-9463859D01*
X12327604Y-9463859D02*
X12318081Y-9559097D01*
X12318081Y-9559097D02*
X12327604Y-9549573D01*
X12327604Y-9549573D02*
X12346652Y-9540049D01*
X12346652Y-9540049D02*
X12394271Y-9540049D01*
X12394271Y-9540049D02*
X12413319Y-9549573D01*
X12413319Y-9549573D02*
X12422842Y-9559097D01*
X12422842Y-9559097D02*
X12432366Y-9578145D01*
X12432366Y-9578145D02*
X12432366Y-9625764D01*
X12432366Y-9625764D02*
X12422842Y-9644811D01*
X12422842Y-9644811D02*
X12413319Y-9654335D01*
X12413319Y-9654335D02*
X12394271Y-9663859D01*
X12394271Y-9663859D02*
X12346652Y-9663859D01*
X12346652Y-9663859D02*
X12327604Y-9654335D01*
X12327604Y-9654335D02*
X12318081Y-9644811D01*
X12499033Y-9463859D02*
X12632366Y-9463859D01*
X12632366Y-9463859D02*
X12546652Y-9663859D01*
X12803795Y-9463859D02*
X12708557Y-9463859D01*
X12708557Y-9463859D02*
X12699033Y-9559097D01*
X12699033Y-9559097D02*
X12708557Y-9549573D01*
X12708557Y-9549573D02*
X12727604Y-9540049D01*
X12727604Y-9540049D02*
X12775223Y-9540049D01*
X12775223Y-9540049D02*
X12794271Y-9549573D01*
X12794271Y-9549573D02*
X12803795Y-9559097D01*
X12803795Y-9559097D02*
X12813319Y-9578145D01*
X12813319Y-9578145D02*
X12813319Y-9625764D01*
X12813319Y-9625764D02*
X12803795Y-9644811D01*
X12803795Y-9644811D02*
X12794271Y-9654335D01*
X12794271Y-9654335D02*
X12775223Y-9663859D01*
X12775223Y-9663859D02*
X12727604Y-9663859D01*
X12727604Y-9663859D02*
X12708557Y-9654335D01*
X12708557Y-9654335D02*
X12699033Y-9644811D01*
X12889509Y-9463859D02*
X12889509Y-9501954D01*
X12965700Y-9463859D02*
X12965700Y-9501954D01*
X13260938Y-9740049D02*
X13251414Y-9730525D01*
X13251414Y-9730525D02*
X13232366Y-9701954D01*
X13232366Y-9701954D02*
X13222843Y-9682906D01*
X13222843Y-9682906D02*
X13213319Y-9654335D01*
X13213319Y-9654335D02*
X13203795Y-9606716D01*
X13203795Y-9606716D02*
X13203795Y-9568621D01*
X13203795Y-9568621D02*
X13213319Y-9521002D01*
X13213319Y-9521002D02*
X13222843Y-9492430D01*
X13222843Y-9492430D02*
X13232366Y-9473383D01*
X13232366Y-9473383D02*
X13251414Y-9444811D01*
X13251414Y-9444811D02*
X13260938Y-9435287D01*
X13422843Y-9463859D02*
X13384747Y-9463859D01*
X13384747Y-9463859D02*
X13365700Y-9473383D01*
X13365700Y-9473383D02*
X13356176Y-9482906D01*
X13356176Y-9482906D02*
X13337128Y-9511478D01*
X13337128Y-9511478D02*
X13327604Y-9549573D01*
X13327604Y-9549573D02*
X13327604Y-9625764D01*
X13327604Y-9625764D02*
X13337128Y-9644811D01*
X13337128Y-9644811D02*
X13346652Y-9654335D01*
X13346652Y-9654335D02*
X13365700Y-9663859D01*
X13365700Y-9663859D02*
X13403795Y-9663859D01*
X13403795Y-9663859D02*
X13422843Y-9654335D01*
X13422843Y-9654335D02*
X13432366Y-9644811D01*
X13432366Y-9644811D02*
X13441890Y-9625764D01*
X13441890Y-9625764D02*
X13441890Y-9578145D01*
X13441890Y-9578145D02*
X13432366Y-9559097D01*
X13432366Y-9559097D02*
X13422843Y-9549573D01*
X13422843Y-9549573D02*
X13403795Y-9540049D01*
X13403795Y-9540049D02*
X13365700Y-9540049D01*
X13365700Y-9540049D02*
X13346652Y-9549573D01*
X13346652Y-9549573D02*
X13337128Y-9559097D01*
X13337128Y-9559097D02*
X13327604Y-9578145D01*
X13679985Y-9663859D02*
X13679985Y-9463859D01*
X13765700Y-9663859D02*
X13765700Y-9559097D01*
X13765700Y-9559097D02*
X13756176Y-9540049D01*
X13756176Y-9540049D02*
X13737128Y-9530525D01*
X13737128Y-9530525D02*
X13708557Y-9530525D01*
X13708557Y-9530525D02*
X13689509Y-9540049D01*
X13689509Y-9540049D02*
X13679985Y-9549573D01*
X13889509Y-9663859D02*
X13870462Y-9654335D01*
X13870462Y-9654335D02*
X13860938Y-9644811D01*
X13860938Y-9644811D02*
X13851414Y-9625764D01*
X13851414Y-9625764D02*
X13851414Y-9568621D01*
X13851414Y-9568621D02*
X13860938Y-9549573D01*
X13860938Y-9549573D02*
X13870462Y-9540049D01*
X13870462Y-9540049D02*
X13889509Y-9530525D01*
X13889509Y-9530525D02*
X13918081Y-9530525D01*
X13918081Y-9530525D02*
X13937128Y-9540049D01*
X13937128Y-9540049D02*
X13946652Y-9549573D01*
X13946652Y-9549573D02*
X13956176Y-9568621D01*
X13956176Y-9568621D02*
X13956176Y-9625764D01*
X13956176Y-9625764D02*
X13946652Y-9644811D01*
X13946652Y-9644811D02*
X13937128Y-9654335D01*
X13937128Y-9654335D02*
X13918081Y-9663859D01*
X13918081Y-9663859D02*
X13889509Y-9663859D01*
X14070462Y-9663859D02*
X14051414Y-9654335D01*
X14051414Y-9654335D02*
X14041890Y-9635287D01*
X14041890Y-9635287D02*
X14041890Y-9463859D01*
X14222843Y-9654335D02*
X14203795Y-9663859D01*
X14203795Y-9663859D02*
X14165700Y-9663859D01*
X14165700Y-9663859D02*
X14146652Y-9654335D01*
X14146652Y-9654335D02*
X14137128Y-9635287D01*
X14137128Y-9635287D02*
X14137128Y-9559097D01*
X14137128Y-9559097D02*
X14146652Y-9540049D01*
X14146652Y-9540049D02*
X14165700Y-9530525D01*
X14165700Y-9530525D02*
X14203795Y-9530525D01*
X14203795Y-9530525D02*
X14222843Y-9540049D01*
X14222843Y-9540049D02*
X14232366Y-9559097D01*
X14232366Y-9559097D02*
X14232366Y-9578145D01*
X14232366Y-9578145D02*
X14137128Y-9597192D01*
X14308557Y-9654335D02*
X14327605Y-9663859D01*
X14327605Y-9663859D02*
X14365700Y-9663859D01*
X14365700Y-9663859D02*
X14384747Y-9654335D01*
X14384747Y-9654335D02*
X14394271Y-9635287D01*
X14394271Y-9635287D02*
X14394271Y-9625764D01*
X14394271Y-9625764D02*
X14384747Y-9606716D01*
X14384747Y-9606716D02*
X14365700Y-9597192D01*
X14365700Y-9597192D02*
X14337128Y-9597192D01*
X14337128Y-9597192D02*
X14318081Y-9587668D01*
X14318081Y-9587668D02*
X14308557Y-9568621D01*
X14308557Y-9568621D02*
X14308557Y-9559097D01*
X14308557Y-9559097D02*
X14318081Y-9540049D01*
X14318081Y-9540049D02*
X14337128Y-9530525D01*
X14337128Y-9530525D02*
X14365700Y-9530525D01*
X14365700Y-9530525D02*
X14384747Y-9540049D01*
X14460938Y-9740049D02*
X14470462Y-9730525D01*
X14470462Y-9730525D02*
X14489509Y-9701954D01*
X14489509Y-9701954D02*
X14499033Y-9682906D01*
X14499033Y-9682906D02*
X14508557Y-9654335D01*
X14508557Y-9654335D02*
X14518081Y-9606716D01*
X14518081Y-9606716D02*
X14518081Y-9568621D01*
X14518081Y-9568621D02*
X14508557Y-9521002D01*
X14508557Y-9521002D02*
X14499033Y-9492430D01*
X14499033Y-9492430D02*
X14489509Y-9473383D01*
X14489509Y-9473383D02*
X14470462Y-9444811D01*
X14470462Y-9444811D02*
X14460938Y-9435287D01*
X14822843Y-9740049D02*
X14813319Y-9730525D01*
X14813319Y-9730525D02*
X14794271Y-9701954D01*
X14794271Y-9701954D02*
X14784747Y-9682906D01*
X14784747Y-9682906D02*
X14775224Y-9654335D01*
X14775224Y-9654335D02*
X14765700Y-9606716D01*
X14765700Y-9606716D02*
X14765700Y-9568621D01*
X14765700Y-9568621D02*
X14775224Y-9521002D01*
X14775224Y-9521002D02*
X14784747Y-9492430D01*
X14784747Y-9492430D02*
X14794271Y-9473383D01*
X14794271Y-9473383D02*
X14813319Y-9444811D01*
X14813319Y-9444811D02*
X14822843Y-9435287D01*
X14899033Y-9530525D02*
X14899033Y-9663859D01*
X14899033Y-9549573D02*
X14908557Y-9540049D01*
X14908557Y-9540049D02*
X14927605Y-9530525D01*
X14927605Y-9530525D02*
X14956176Y-9530525D01*
X14956176Y-9530525D02*
X14975224Y-9540049D01*
X14975224Y-9540049D02*
X14984747Y-9559097D01*
X14984747Y-9559097D02*
X14984747Y-9663859D01*
X15108557Y-9663859D02*
X15089509Y-9654335D01*
X15089509Y-9654335D02*
X15079986Y-9644811D01*
X15079986Y-9644811D02*
X15070462Y-9625764D01*
X15070462Y-9625764D02*
X15070462Y-9568621D01*
X15070462Y-9568621D02*
X15079986Y-9549573D01*
X15079986Y-9549573D02*
X15089509Y-9540049D01*
X15089509Y-9540049D02*
X15108557Y-9530525D01*
X15108557Y-9530525D02*
X15137128Y-9530525D01*
X15137128Y-9530525D02*
X15156176Y-9540049D01*
X15156176Y-9540049D02*
X15165700Y-9549573D01*
X15165700Y-9549573D02*
X15175224Y-9568621D01*
X15175224Y-9568621D02*
X15175224Y-9625764D01*
X15175224Y-9625764D02*
X15165700Y-9644811D01*
X15165700Y-9644811D02*
X15156176Y-9654335D01*
X15156176Y-9654335D02*
X15137128Y-9663859D01*
X15137128Y-9663859D02*
X15108557Y-9663859D01*
X15232367Y-9530525D02*
X15308557Y-9530525D01*
X15260938Y-9463859D02*
X15260938Y-9635287D01*
X15260938Y-9635287D02*
X15270462Y-9654335D01*
X15270462Y-9654335D02*
X15289509Y-9663859D01*
X15289509Y-9663859D02*
X15308557Y-9663859D01*
X15527605Y-9530525D02*
X15527605Y-9730525D01*
X15527605Y-9540049D02*
X15546652Y-9530525D01*
X15546652Y-9530525D02*
X15584748Y-9530525D01*
X15584748Y-9530525D02*
X15603795Y-9540049D01*
X15603795Y-9540049D02*
X15613319Y-9549573D01*
X15613319Y-9549573D02*
X15622843Y-9568621D01*
X15622843Y-9568621D02*
X15622843Y-9625764D01*
X15622843Y-9625764D02*
X15613319Y-9644811D01*
X15613319Y-9644811D02*
X15603795Y-9654335D01*
X15603795Y-9654335D02*
X15584748Y-9663859D01*
X15584748Y-9663859D02*
X15546652Y-9663859D01*
X15546652Y-9663859D02*
X15527605Y-9654335D01*
X15737128Y-9663859D02*
X15718081Y-9654335D01*
X15718081Y-9654335D02*
X15708557Y-9635287D01*
X15708557Y-9635287D02*
X15708557Y-9463859D01*
X15899033Y-9663859D02*
X15899033Y-9559097D01*
X15899033Y-9559097D02*
X15889509Y-9540049D01*
X15889509Y-9540049D02*
X15870462Y-9530525D01*
X15870462Y-9530525D02*
X15832367Y-9530525D01*
X15832367Y-9530525D02*
X15813319Y-9540049D01*
X15899033Y-9654335D02*
X15879986Y-9663859D01*
X15879986Y-9663859D02*
X15832367Y-9663859D01*
X15832367Y-9663859D02*
X15813319Y-9654335D01*
X15813319Y-9654335D02*
X15803795Y-9635287D01*
X15803795Y-9635287D02*
X15803795Y-9616240D01*
X15803795Y-9616240D02*
X15813319Y-9597192D01*
X15813319Y-9597192D02*
X15832367Y-9587668D01*
X15832367Y-9587668D02*
X15879986Y-9587668D01*
X15879986Y-9587668D02*
X15899033Y-9578145D01*
X15965700Y-9530525D02*
X16041890Y-9530525D01*
X15994271Y-9463859D02*
X15994271Y-9635287D01*
X15994271Y-9635287D02*
X16003795Y-9654335D01*
X16003795Y-9654335D02*
X16022843Y-9663859D01*
X16022843Y-9663859D02*
X16041890Y-9663859D01*
X16184748Y-9654335D02*
X16165700Y-9663859D01*
X16165700Y-9663859D02*
X16127605Y-9663859D01*
X16127605Y-9663859D02*
X16108557Y-9654335D01*
X16108557Y-9654335D02*
X16099033Y-9635287D01*
X16099033Y-9635287D02*
X16099033Y-9559097D01*
X16099033Y-9559097D02*
X16108557Y-9540049D01*
X16108557Y-9540049D02*
X16127605Y-9530525D01*
X16127605Y-9530525D02*
X16165700Y-9530525D01*
X16165700Y-9530525D02*
X16184748Y-9540049D01*
X16184748Y-9540049D02*
X16194271Y-9559097D01*
X16194271Y-9559097D02*
X16194271Y-9578145D01*
X16194271Y-9578145D02*
X16099033Y-9597192D01*
X16365700Y-9663859D02*
X16365700Y-9463859D01*
X16365700Y-9654335D02*
X16346652Y-9663859D01*
X16346652Y-9663859D02*
X16308557Y-9663859D01*
X16308557Y-9663859D02*
X16289509Y-9654335D01*
X16289509Y-9654335D02*
X16279986Y-9644811D01*
X16279986Y-9644811D02*
X16270462Y-9625764D01*
X16270462Y-9625764D02*
X16270462Y-9568621D01*
X16270462Y-9568621D02*
X16279986Y-9549573D01*
X16279986Y-9549573D02*
X16289509Y-9540049D01*
X16289509Y-9540049D02*
X16308557Y-9530525D01*
X16308557Y-9530525D02*
X16346652Y-9530525D01*
X16346652Y-9530525D02*
X16365700Y-9540049D01*
X16441890Y-9740049D02*
X16451414Y-9730525D01*
X16451414Y-9730525D02*
X16470462Y-9701954D01*
X16470462Y-9701954D02*
X16479986Y-9682906D01*
X16479986Y-9682906D02*
X16489509Y-9654335D01*
X16489509Y-9654335D02*
X16499033Y-9606716D01*
X16499033Y-9606716D02*
X16499033Y-9568621D01*
X16499033Y-9568621D02*
X16489509Y-9521002D01*
X16489509Y-9521002D02*
X16479986Y-9492430D01*
X16479986Y-9492430D02*
X16470462Y-9473383D01*
X16470462Y-9473383D02*
X16451414Y-9444811D01*
X16451414Y-9444811D02*
X16441890Y-9435287D01*
M02*
